<?xml version="1.0" encoding="UTF-8"?>
<svg id="Capa_1" data-name="Capa 1" xmlns="http://www.w3.org/2000/svg" version="1.1" viewBox="0 0 1080 1080">
  <defs>
    <style>
      .cls-1 {
        fill: #fff;
        stroke-width: 0px;
      }
    </style>
  </defs>
  <path class="cls-1" d="M889.7,706.16c12.38-2.93,24.16-6.83,36.24-8.37,41.2-5.26,76.05,8.09,104.37,38.24,13.85,14.74,11.55,33.21-5.66,44.15-90.99,57.82-181.78,115.96-273.34,172.88-40.6,25.25-84.6,28-129.45,11.25-83.46-31.17-166.8-62.65-250.29-93.71-6.67-2.48-14.16-3.7-21.3-3.85-22.97-.48-45.95-.01-68.93-.29-5.89-.07-9.43,1.23-12.53,6.96-11.26,20.81-29.52,31.08-52.95,31.67-17.97.46-35.96.22-53.94,0-3.56-.04-8.35-.16-10.44-2.31-6.55-6.77-14.47-5.53-22.3-5.55-22.64-.06-45.29.08-67.93-.06-15.05-.09-20.5-5.47-20.51-20.57-.08-82.59-.08-165.17-.01-247.76.01-15.79,5.25-20.77,21.13-20.79,24.98-.04,49.95.15,74.93-.19,3.87-.05,7.69-2.49,11.57-3.7,4.63-1.44,9.27-3.81,13.95-3.93,17.64-.47,35.29-.26,52.94-.17,21.97.11,39.27,9.4,51.23,27.68,3.31,5.06,6.38,5.98,12.04,5.34,39.02-4.42,78.08-8.56,117.16-12.39,8.9-.87,18.3-1.74,26.87.15,12.97,2.86,20.22-2.45,28.6-11.51,47.58-51.39,106.67-79.26,176.7-83.62,2.61-.16,5.21-.61,8.48-1v-94.73c-19.47-2.94-39.16-3.32-57.14-9.09-68.46-21.96-104.94-72.69-117.41-140.94-10.46-57.27,3.36-111.66,27.55-163.73,4.43-9.54,11.45-12.44,21.95-10.58,50.89,8.98,96.36,29.67,136.77,61.73,2.06,1.63,4.17,3.19,6.54,5.01,32.62-24.12,68.34-41.49,107.72-50.65,14.53-3.38,29.44-5.2,44.23-7.32,7.73-1.11,14.03,2.07,16.88,9.51,25.39,66.26,36.35,133.8,5.91,200.86-29.83,65.73-80.72,103.49-155.57,103.25-.99,0-1.99.13-2.97.28-.27.04-.49.4-1.28,1.08v96.3c108.93,16.68,182.28,76.7,220.21,180.46ZM474.31,773.13c3.79,1.34,6.3,2.12,8.74,3.1,47.23,18.88,94.4,37.93,141.74,56.53,6.63,2.6,14.19,4.54,21.18,4.14,14.42-.81,26.17-11.77,29.08-24.88,3.38-15.24-2.31-28.98-16.34-37.56-53.08-32.46-106.18-64.91-159.46-97.03-34.19-20.61-71.25-28.49-111.06-23.92-34.06,3.92-68.17,7.4-102.3,10.58-7.61.71-9.95,3.29-9.9,11,.34,49.96.16,99.92.2,149.88,0,2.91.35,5.81.6,9.65,25.64,0,50.58-.45,75.49.23,9.42.26,19.28,1.76,28.08,5.02,83.22,30.87,166.3,62.14,249.34,93.53,39.18,14.81,76.07,11.25,111.52-11.32,84.5-53.8,169.21-107.25,253.82-160.86,2.92-1.85,5.7-3.91,9.36-6.43-27.15-24.4-57.15-33.14-90.57-21.73-66.7,22.77-132.94,46.86-199.28,70.66-2.78,1-6.07,4.33-6.66,7.1-10.4,49.37-48.76,70.08-95.85,51.37-28.11-11.17-56.18-22.46-84.27-33.69-21.5-8.6-43-17.19-65.24-26.07,4.09-10.16,7.76-19.31,11.77-29.29ZM475.07,629.44c15.6,7.98,30.44,14.56,44.28,22.83,46.83,28,93.27,56.64,139.91,84.95,16.19,9.83,33.24,18.57,41.88,36.97,53.27-18.92,105.44-37.44,158.59-56.32-30.67-85.67-88.08-140.41-176.82-156.91-80.66-14.99-149.91,10.47-207.85,68.47ZM657.14,381.06c4.28-6.75,7.54-11.35,10.26-16.25,26.38-47.56,18.58-108.3-20.32-153.37-35-40.56-81.49-60.46-132.05-72.6-23.34,42.19-31.43,113.86-16.56,157.94,15.51,45.95,43.75,80.54,92.42,94.11,11.48,3.2,23.69,3.8,38.34,6.01-27.96-54.27-54.23-105.28-80.91-157.07,9.71-5.03,18.67-9.68,28.3-14.67,26.85,51.99,53.19,102.98,80.52,155.9ZM677.25,196.81c43.21,63.91,53.51,129.75,9.21,199.04,31.1-2.58,56.87-13.65,78.37-34.02,29.26-27.71,45.02-61.9,48.7-102.05,3.53-38.47-2.95-75.31-14.93-111.33-32.94-.02-96.28,25.37-121.35,48.35ZM175.35,632.17v241.07c12.15,0,23.43.05,34.72-.01,23.9-.12,34.07-10.19,34.1-34.03.07-50.59.04-101.18,0-151.78,0-9.98.28-20-.4-29.94-.95-13.87-11.35-24.52-25.12-25.17-14.25-.67-28.56-.15-43.31-.15ZM73.63,640.38c-.41,1.82-.8,2.77-.8,3.73-.07,71.21-.04,142.43-.24,213.64-.02,6.55,2.95,7.66,8.52,7.58,16.64-.23,33.3-.6,49.91.13,9.19.4,11.75-2.39,11.7-11.61-.38-67.55-.2-135.11-.23-202.66,0-3.5-.34-7.01-.54-10.81h-68.32Z"/>
</svg>