<?xml version="1.0" encoding="UTF-8"?>
<svg id="Capa_1" data-name="Capa 1" xmlns="http://www.w3.org/2000/svg" version="1.1" viewBox="0 0 1080 1080">
  <defs>
    <style>
      .cls-1 {
        fill: #73B9D4;
        stroke-width: 0px;
      }
    </style>
  </defs>
  <path class="cls-1" d="M1026.37,458.31c-7.05-20.18-20.89-32.46-41.99-36.65-1.9-.38-4.64-2.73-4.85-4.44-3.38-27.13-22-38-46.14-43.56-2.62-28.41-21.01-41.39-46.92-46.7-1.65-23.92-15.41-37.97-37.03-44.13-22.72-6.48-39.14,4.01-51.48,23.51-14.38-14.37-28.23-28.13-41.95-42.02-1.49-1.51-2.4-3.69-3.27-5.7-13.3-30.78-31.24-56.95-53.39-78.93,1.1-1.17,2.16-2.39,3.24-3.57,25.39-27.72,50.8-55.41,76.13-83.19,14.23-15.6,13.63-25.62-2.11-39.3h-12.24c-31.03,33.43-62.23,66.68-92.96,100.42-.32.35-.6.71-.88,1.07-15.2-11.14-31.82-20.86-49.8-29.24-28.92-13.46-57.81-26.97-86.7-40.51-1.68-.79-3.14-2.02-4.32-2.78,2.17-5.41,6.18-10.66,5.64-15.39-.54-4.79-5.59-9.07-8.66-13.57h-9.5c-4.94,4.26-9.88,8.52-14.75,12.71-9.11-4.28-18.08-8.5-27.05-12.71h-17.1c-20.32,6.92-32.42,20.93-36.73,41.96-.39,1.9-2.8,4.6-4.54,4.82-26.71,3.4-37.54,21.64-43.41,45.99-27.64,2.42-41.09,20.35-46.54,46.9-24.2,1.6-38.63,15.9-44.59,38.22-5.96,22.32,4.74,38.48,23.89,50.44-14.41,14.44-28.19,28.29-42.04,42.07-1.09,1.08-2.54,1.92-3.97,2.53-33.58,14.4-63.09,34.64-88.76,62.1-2.64-2.51-5.12-4.78-7.5-7.15-27.54-27.51-55.04-55.06-82.59-82.55-11.09-11.06-18.14-10.6-27.89,1.65v9.5c12.08,12.47,24.05,25.06,36.28,37.39,20.93,21.11,42.01,42.06,63.17,63.22-7.87,13.78-15.61,27.07-23.03,40.55-1.78,3.23-4.31,7.88-3.21,10.48,2.11,5,5.71,10.73,10.27,13.01,6.12,3.05,12.4-.32,16.01-6.52,4.76-8.2,9.1-16.64,13.85-24.84,24.05-41.45,59.14-70.25,102.45-89.84,6.16-2.79,12.13-6.81,17-11.5,14.81-14.26,29.03-29.12,44.39-44.67,33.71,24.61,70.82,43.49,102.07,73.99-12.02,11.71-23.54,22.8-34.91,34.05-10.98,10.87-10.95,15.2-2.35,27.74,20.74,30.24,41.21,60.66,61.6,91.14,2.96,4.43,4.86,9.57,7.27,14.37,11.56,23,11.58,45.47-2.6,67.55-5.12,7.97-9.55,16.39-14.29,24.61-8.56,14.81-10.65,16.88-25.86,25.87-8.85-8.7-17.61-17.31-27.74-27.27,11.19-5.32,21.88-10.33,32.51-15.48,8.06-3.91,11.22-11.37,8.16-18.77-2.9-7.01-9.99-10.09-18.15-7.72-2.72.79-5.34,1.94-7.95,3.06-35.88,15.31-64.9,39.04-86.66,71.41-21.89,32.55-43.46,65.31-65.17,97.99-6.66,10.03-12.32,12.47-21.18,9.07-12.34-4.74-16.25-14.06-9.83-25.66,11.04-19.91,22.62-39.52,33.98-59.25,2.68-4.66,5.46-9.27,8.09-13.95,5.69-10.14,4.35-18.73-3.52-23.04-7.57-4.15-15.37-1.08-20.97,8.53-10.04,17.21-19.96,34.49-29.93,51.73-1.27,2.19-2.5,4.41-3.87,6.53-6.91,10.67-13.58,12.55-23.83,6.8-10.39-5.83-12.7-13.47-6.4-24.65,13.66-24.24,27.73-48.25,41.63-72.36,1.11-1.92,2.29-3.79,3.34-5.74,4.87-9.07,3.32-17.42-3.97-21.59-7.37-4.21-15.44-1.55-20.6,7.27-12.14,20.74-23.95,41.67-36.15,62.38-6.51,11.04-13.04,13.4-22.58,9-12.22-5.63-15.03-13.94-8.09-26.23,13.53-23.95,27.4-47.71,41.14-71.55,1.58-2.74,3.29-5.41,4.74-8.21,4.44-8.56,2.66-16.61-4.46-20.71-7.2-4.14-15.14-1.89-20.08,6.46-11.43,19.32-22.54,38.84-33.78,58.27-1.58,2.74-3.07,5.54-4.83,8.16-6.74,10.01-14.16,11.69-24.23,5.62-9.57-5.77-11.61-12.75-5.98-23.31,13.67-25.65,27.64-51.15,41.45-76.73,1.05-1.94,1.96-3.98,2.67-6.07,2.67-7.95-.15-15.31-6.98-18.51-7.24-3.39-14.95-.6-19.06,7.33-2.91,5.6-5.13,11.56-7.96,17.21-4.08,8.15-8.44,16.17-12.42,23.75-5.86-2.36-11.11-6.38-15.84-5.85-4.79.54-9.07,5.6-13.57,8.68v9.5c4.26,4.95,8.52,9.9,12.75,14.8-4.29,9.08-8.52,18.03-12.75,26.99v17.1c6.95,20.31,20.96,32.41,42,36.7,1.9.39,4.64,2.75,4.85,4.45,3.25,26.8,21.65,37.44,42.15,42.65,6.81,11.87,11,24.01,19.19,32.11,8.07,7.97,20.19,11.84,31.93,18.27,1.43,20.62,14.71,34.63,35.97,41,23.14,6.94,39.76-3.49,52.27-23.16,14.41,14.37,28.27,28.14,42.05,41.98,1.09,1.09,1.92,2.54,2.54,3.97,14.43,33.54,34.6,63.1,62.11,88.71-2.55,2.67-4.82,5.15-7.2,7.53-27.51,27.53-55.05,55.03-82.54,82.58-11.05,11.08-10.58,18.15,1.66,27.88h9.5c19.16-18.77,38.39-37.47,57.46-56.33,14.57-14.41,28.95-29.01,41.51-41.62,48.4,23.46,95.13,46.11,141.35,68.52-2.36,5.91-6.36,11.16-5.81,15.88.55,4.79,5.6,9.05,8.67,13.55h9.5c4.94-4.26,9.89-8.51,14.78-12.73,9.1,4.28,18.06,8.51,27.02,12.73h17.1c20.24-6.98,32.45-20.86,36.7-41.96.4-1.99,3.3-4.49,5.45-4.97,24.61-5.6,36.95-18.66,42.11-45.79,28.39-2.53,41.82-20.94,47.12-46.92,26.95-4.03,44.58-22.25,45.76-46.72.86-17.67-7.63-30.13-21.75-39.5-31.62-21-63.43-41.73-94.8-63.11-11.94-8.14-22.87-17.76-35.6-27.75,12.63-12.52,24.02-23.74,35.34-35.03,10.93-10.92,11.26-15.41,2.33-27.74-24.5-33.79-50.14-66.82-68.63-104.59-3.91-7.98-11.88-10.53-19.13-7.13-7.07,3.32-10.09,11.3-6.3,19.44,4.76,10.25,10.36,20.12,16.52,31.92-42.51-19.07-77.08.07-113.67,21.04,19.48-43.28.24-77.85-20.72-114.55,43.33,19.63,77.84.21,113.51-20.01-1.87,6.18-3.49,10.87-4.7,15.66-2.18,8.58,1.5,15.6,9.25,18.1,7.22,2.33,14-1.45,17.62-8.96,7.66-15.9,15.95-31.5,23.44-47.48,5.79-12.33,15.25-20.65,26.51-26.96,8.83,8.88,17.63,17.74,27.25,27.43-9.54,4.63-19.05,9.47-28.76,13.89-10.34,4.71-14.48,11.48-11.42,19.69,3.17,8.52,11.34,11.05,22.35,6.66,37.85-15.08,68.2-39.59,90.91-73.37,21.89-32.55,43.44-65.33,65.16-97.99,6.53-9.82,12.39-12.12,21.35-8.46,12.45,5.1,15.91,13.86,9.2,25.82-13.61,24.27-27.79,48.22-41.49,72.45-2.1,3.71-4.88,8.87-3.77,12.14,1.6,4.71,5.72,9.93,10.14,12.01,6.87,3.24,12.83-.73,16.57-7.16,9.07-15.58,18.05-31.21,27.08-46.81,2.53-4.38,4.96-8.83,7.65-13.11,7.04-11.22,13.94-13.15,24.47-7.03,10.16,5.91,12.26,13.5,5.84,24.87-13.37,23.68-27.14,47.14-40.74,70.69-1.42,2.46-2.92,4.89-4.25,7.41-4.57,8.64-3.12,16.66,3.73,20.91,7.27,4.51,15.66,2.07,20.79-6.57,8.88-14.95,17.47-30.08,26.18-45.14,3.32-5.75,6.53-11.57,9.97-17.25,7.32-12.09,14.33-14.4,24.92-8.38,10.53,5.98,12.39,13.67,5.77,25.66-5.96,10.79-12.26,21.4-18.43,32.08-8.85,15.34-17.8,30.62-26.54,46.02-5.21,9.18-3.81,17.23,3.41,21.67,7.61,4.68,15.66,2.03,21.23-7.49,12.47-21.28,24.57-42.78,37.15-64,6.26-10.56,13.26-12.63,22.92-7.83,10.85,5.39,14.47,13.74,7.97,24.03-28.84,45.64-48.6,95.77-72.39,143.91-24.87,50.31-63.89,85.42-115.08,108.22-10.04,4.47-17.98,14.47-25.7,23-4.45,4.92-3.05,12.57,2.46,15.98,4.37,2.7,13.56,4.79,15.93,2.44,23.1-22.97,56.26-30.14,79.91-51.94,9.29-8.57,18.88-16.81,29.17-25.93,2.04,1.94,4.53,4.2,6.9,6.57,27.55,27.52,55.06,55.07,82.62,82.58,11.07,11.05,18.17,10.59,27.9-1.64v-9.5c-18.33-18.72-36.59-37.5-55-56.13-14.85-15.03-29.87-29.89-42.94-42.95,23.42-48.32,46.08-95.07,68.48-141.28,5.93,2.38,11.18,6.39,15.91,5.85,4.79-.55,9.06-5.6,13.55-8.67v-9.5c-4.26-4.95-8.53-9.9-12.75-14.8,4.29-9.08,8.52-18.04,12.75-27v-17.1ZM511.73,630.1c7.28-4.95,15.46-8.58,23.24-12.8,25.27-13.7,49.99-13.87,74.31,2.56,6.54,4.41,13.41,8.5,20.56,11.79,12.42,5.71,20.56,15.36,27.04,26.93-8.81,8.49-17.63,16.99-27.74,26.73-4.98-10.43-10-21.07-15.15-31.65-5.2-10.67-18.87-13.06-24.24-3.52-2.48,4.41-2.57,11.83-.72,16.74,13.69,36.19,36.47,65.84,68.24,87.86,33.8,23.42,68.35,45.76,102.59,68.55,11.49,7.65,13.49,15.56,6.47,26.16-5.97,9.02-12.87,10.61-23.74,4.48-22.87-12.88-45.54-26.12-68.29-39.21-2.47-1.42-4.85-3.01-7.41-4.24-7.88-3.82-15.94-1.63-19.75,5.21-3.81,6.85-1.64,14.96,5.98,19.54,14.36,8.64,28.97,16.87,43.47,25.27,5.47,3.17,11.02,6.23,16.41,9.52,11.45,7,13.55,13.79,7.7,24.3-5.95,10.7-13.63,12.81-25.47,6.1-24.49-13.87-48.78-28.1-73.16-42.17-12.56-7.25-20.95-6.75-25.7,1.5-4.86,8.43-1.27,15.83,11.25,23.07,19.71,11.4,39.54,22.6,59.1,34.26,11.31,6.74,13.09,14.12,6.96,24.53-5.94,10.1-13.53,12.08-24.97,5.6-25.87-14.65-51.5-29.72-77.38-44.34-3.68-2.08-8.89-4.59-12.19-3.44-4.67,1.63-9.84,5.72-11.88,10.12-3.25,7,1.15,12.72,7.48,16.4,19.41,11.29,38.87,22.49,58.31,33.73,2.74,1.58,5.55,3.06,8.16,4.83,9.62,6.53,11.43,13.85,5.97,23.5-5.71,10.09-13.5,13.03-23.81,6.5-45.87-29.08-96.43-48.72-144.76-72.83-49.58-24.74-84.66-63.27-106.42-114.17-1.92-4.5-5.05-8.77-8.49-12.3-14.99-15.37-30.31-30.43-46.22-46.32,24.93-33.57,43.44-71,73.69-101.33,12.49,12.6,24.19,24.53,36.04,36.31,8.61,8.55,14.24,8.81,24.17,1.9,26.73-18.63,53.4-37.34,80.34-55.65ZM708.84,432.36c-12.23-12.3-23.74-23.96-35.35-35.53-9.53-9.5-14.61-9.59-25.61-2.07-30.53,20.88-61.22,41.54-91.88,62.24-2.35,1.58-5.03,2.66-7.5,4.06-27.22,15.46-53.91,16.15-80.21-2.37-5.66-3.99-11.81-7.45-18.11-10.34-12.39-5.69-20.61-15.3-26.98-26.78,8.69-8.62,17.39-17.24,27.38-27.15,5.06,10.42,10.12,20.69,15.04,31.02,4.19,8.81,11.34,12.35,19.02,9.22,7.63-3.11,10.48-10.75,7.36-19.93-.71-2.09-1.65-4.1-2.52-6.14-14.91-34.94-37.69-63.64-69.07-85.05-33.19-22.64-66.85-44.6-100.31-66.84-10.32-6.86-12.73-12.82-8.76-22.01,5.35-12.4,13.82-15.5,26.01-8.64,23.98,13.49,47.68,27.47,71.63,41.03,3.74,2.12,8.92,5.21,12.07,4.07,4.95-1.79,10.37-5.99,12.63-10.61,3.1-6.33-.69-12.26-6.82-15.83-17.21-10.04-34.49-19.96-51.73-29.94-3.28-1.9-6.61-3.75-9.76-5.86-10.16-6.84-11.78-13.96-5.64-24.15,5.72-9.5,12.9-11.76,23.28-5.95,24.28,13.59,48.29,27.67,72.42,41.55,2.47,1.42,4.9,2.91,7.43,4.21,8.58,4.43,16.71,2.7,20.75-4.34,4.07-7.09,1.69-15.32-6.41-20.15-14.12-8.43-28.44-16.53-42.68-24.75-6.03-3.48-12.09-6.89-18.09-10.41-14.18-8.32-16.79-15.24-10.12-26.55,6.32-10.71,13.98-11.99,27.5-4.23,24.15,13.84,48.22,27.81,72.32,41.72,2.19,1.26,4.34,2.63,6.64,3.66,7.62,3.43,15.24,1.21,18.97-5.38,3.78-6.67,2.13-14.59-5.01-19.03-12.08-7.51-24.56-14.38-36.87-21.52-10.39-6.03-20.96-11.79-31.12-18.2-9.99-6.3-11.55-13.48-5.97-23.36,5.56-9.84,13.33-13.09,22.96-6.99,47.22,29.92,99.45,49.77,148.93,75.09,47.81,24.46,81.42,62.34,102.71,111.49,2.07,4.79,5.24,9.41,8.88,13.16,14.96,15.41,30.29,30.46,46.33,46.48-25.39,33.73-43.62,71.11-73.75,101.11Z"/>
  <path class="cls-1" d="M1026.37,517.2c-4.26-4.95-8.53-9.9-12.75-14.8,4.29-9.08,8.52-18.04,12.75-27v41.8Z"/>
</svg>