<?xml version="1.0" encoding="UTF-8"?>
<svg id="Capa_1" data-name="Capa 1" xmlns="http://www.w3.org/2000/svg" version="1.1" viewBox="0 0 1080 1080">
  <defs>
    <style>
      .cls-1 {
        fill: #fff;
        stroke-width: 0px;
      }
    </style>
  </defs>
  <path class="cls-1" d="M131.91,539.87c2.13-80.33,3.13-160.71,6.96-240.96,1.54-32.25,7.13-64.71,14.66-96.17,15.57-65.03,58.38-103.4,123.25-118.07,49.67-11.23,100.25-13.24,150.75-13.47,94.46-.42,188.94.14,283.38,2.19,31.52.69,63.24,5.47,94.29,11.38,71.41,13.6,113.96,58.42,127.82,128.73,7.54,38.28,13.42,77.56,13.88,116.46,1.64,139.94,1.59,279.92.02,419.87-.43,38.12-6.41,76.54-13.43,114.16-14.3,76.61-61.88,122.03-138.58,133.13-47.54,6.88-95.87,10.67-143.9,11.31-92.09,1.22-184.23.12-276.31-1.94-31.92-.72-64.04-5.35-95.48-11.33-71.78-13.65-113.38-58.75-129.05-129.32-14.13-63.63-14.55-128.38-15.9-193-.92-44.29-.18-88.61-.18-132.92-.72-.02-1.43-.03-2.15-.05ZM904.83,553.19c-.69-.02-1.38-.03-2.08-.05,0-47.44.64-94.89-.16-142.32-1.03-60.71-1.92-121.45-13.54-181.47-11-56.88-42.99-91.93-101.22-100.42-25.93-3.78-52.04-8.2-78.13-8.67-91.3-1.65-182.64-3.03-273.94-1.81-47.23.63-94.62,5.18-141.52,11.16-52.58,6.71-86.83,37.47-96.6,90.16-7.12,38.38-13.42,77.53-13.89,116.41-1.66,136-1.29,272.05-.26,408.06.33,43.81,4.5,87.63,17.87,129.97,11.82,37.41,35.96,62.99,74.16,71.34,32.35,7.07,65.58,12.93,98.57,13.8,91.27,2.4,182.64,3.26,273.93,2.02,47.62-.65,95.43-5.05,142.68-11.32,52.6-6.97,85.45-38.61,95.91-91.11,5.19-26.05,10.17-52.49,11.35-78.93,3.36-75.56,4.72-151.21,6.87-226.82Z"/>
  <path class="cls-1" d="M411.49,544.7c-24.02-2.12-58.35-4.65-92.54-8.47-9.44-1.06-18.88-5.1-27.56-9.32-11.53-5.61-19.43-15.59-20.47-28.41-3.81-47.09,1.68-92.39,29.72-132.39,4.7-6.7,10.44-12.69,15.96-18.77,17.55-19.33,38.33-22.69,61.79-12.12.71.32,1.48.56,2.14.95,28.13,16.77,55.45,15.28,84.56.37,27.55-14.11,43.78-9.4,65.02,13.11,29.12,30.88,41.02,68.69,43.45,110.11.55,9.37.16,18.81.08,28.21-.19,22.26-9.27,36.7-30.69,43.39-15.55,4.85-31.98,7.76-48.23,9.27-24.15,2.25-48.49,2.5-83.23,4.08ZM422.08,497.87c.04-.53.07-1.05.11-1.58,5.48,0,10.99.32,16.44-.05,25.74-1.78,51.49-3.49,77.17-5.91,3.75-.35,10.13-4.2,10.28-6.75,2.19-35.16-2.22-68.71-25.75-97.32-6.5-7.91-12.59-10.13-21.85-5.06-36.87,20.16-74.08,20.16-110.98.22-10.82-5.85-17.69-2.61-24.7,6.25-19.74,24.94-26.35,53.56-25.67,84.63.37,16.86,0,17.56,17.19,19.13,29.2,2.66,58.5,4.34,87.75,6.44Z"/>
  <path class="cls-1" d="M553.24,774.07c-83.45,0-166.9,0-250.34,0-3.53,0-7.07.17-10.57-.15-12.72-1.19-21.99-11.03-22.08-23.22-.09-12.19,9.11-22.24,21.75-23.52,3.49-.35,7.05-.17,10.57-.17,167.29,0,334.57,0,501.86,0,21.41,0,32.55,7.98,32.66,23.35.11,15.42-11.17,23.71-32.33,23.71-83.84,0-167.68,0-251.52,0Z"/>
  <path class="cls-1" d="M553.53,821.14c83.84,0,167.68,0,251.52.01,3.91,0,7.88-.22,11.73.33,11.44,1.64,19.95,11.24,20.3,22.47.36,11.67-8.18,22.03-20.06,23.87-3.84.59-7.82.37-11.73.37-167.68.01-335.36.01-503.04,0-3.53,0-7.08.2-10.57-.19-12.57-1.4-21.69-11.64-21.45-23.81.23-11.72,9.14-21.45,21.21-22.83,3.87-.44,7.83-.22,11.74-.22,83.45,0,166.9,0,250.34,0Z"/>
  <path class="cls-1" d="M422.35,162.25c47.36.18,85.72,39.08,85.4,86.6-.32,47.32-39.35,85.57-86.88,85.12-46.8-.44-84.87-39.06-84.81-86.02.06-47.38,38.83-85.88,86.3-85.7ZM460.7,248.45c.19-21.35-17.11-38.96-38.44-39.14-21.4-.18-38.96,17.06-39.13,38.43-.18,21.38,17.09,38.98,38.42,39.16,21.33.18,38.96-17.14,39.16-38.45Z"/>
  <path class="cls-1" d="M457.04,632.88c50.91,0,101.82,0,152.72.01,3.91,0,7.88-.22,11.73.32,11.44,1.63,19.95,11.23,20.31,22.45.37,11.66-8.16,21.99-20.01,23.91-3.07.5-6.25.36-9.38.36-104.16.02-208.33.01-312.49.01-1.57,0-3.13.04-4.7-.02-14.92-.58-25.23-10.48-24.98-23.96.24-13.04,10.3-22.63,24.68-23,11.74-.3,23.49-.08,35.24-.08,42.29,0,84.59,0,126.88,0Z"/>
</svg>