<?xml version="1.0" encoding="UTF-8"?>
<svg id="Capa_1" data-name="Capa 1" xmlns="http://www.w3.org/2000/svg" version="1.1" viewBox="0 0 1080 1080">
  <defs>
    <style>
      .cls-1 {
        fill: #5fcafc;
      }

      .cls-1, .cls-2, .cls-3, .cls-4, .cls-5 {
        stroke-width: 0px;
      }

      .cls-2 {
        fill: #f872a2;
      }

      .cls-3 {
        fill: #fc4973;
      }

      .cls-4 {
        fill: #fdfcfd;
      }

      .cls-5 {
        fill: #f772a2;
      }

      .cls-6 {
        fill: #fff;
        stroke: #fff;
        stroke-miterlimit: 10;
      }
    </style>
  </defs>
  <path class="cls-6" d="M330.17,919.95c0,10.71.21,21.42-.04,32.12-.65,27.37-22.13,49.52-49.09,50.9-27.41,1.4-51.54-18.68-54.37-46.3-2.32-22.61-.99-45.39-.62-68.07.15-9.29-2.87-11.47-11.46-11.02-10.32.54-20.81.45-31.07-.73-26.41-3.04-46.08-25.96-45.52-52.1.58-26.85,22.24-49.74,49.02-51.24,10.67-.6,21.41-.42,32.11-.16,5.05.12,6.81-1.52,6.74-6.62-.23-17.52-.42-35.05.08-52.55.2-6.81-4.29-6.9-8.48-8.2-84.41-26.34-138.18-82.29-158.46-168.28-30.21-128.05,62.28-257,193.28-270.75,75.49-7.92,137.79,19.41,189.26,73.52,5.92,6.23,8.18,6.7,14.14-.1,67.21-76.69,179.16-97.21,270.5-49.73,6.47,3.37,10.08,3.42,15.47-2.09,29.49-30.15,59.34-59.95,89.45-89.48,5.33-5.22,4.95-7.72-.11-12.76-28.21-28.17-18.42-64.79,19.91-75.24,39.66-10.81,79.36-21.49,119.08-32.09,36.83-9.83,64.49,17.45,54.83,54.3-10.67,40.71-21.64,81.34-32.79,121.91-9.58,34.87-47.32,44.91-72.94,19.07-6.66-6.72-9.75-6.51-16.19.12-28.03,28.85-56.57,57.21-85.29,85.38-5.28,5.18-6.03,8.5-2.01,15.19,60.95,101.51,32.21,232.74-64.89,297.84-92.38,61.94-216.89,47.69-292.89-33.74-4.59-4.92-6.67-6.47-12.1-.33-29.29,33.11-65.46,55.69-108.14,67.41-5.89,1.62-7.63,4.01-7.49,9.89.38,16.21.61,32.46-.08,48.65-.33,7.85,2.67,9.24,9.46,8.89,9.38-.49,18.82-.5,28.21-.13,27.32,1.07,49.16,22.36,50.17,48.56,1.08,28.21-18.09,51.73-45.67,54.82-11.55,1.3-23.31.98-34.97.82-5.6-.08-7.26,1.82-7.09,7.27.35,11.67.11,23.36.11,35.04h-.05ZM246.27,300.05c-.63,0-1.26-.02-1.89-.03-6.33,1.24-12.8,2-18.97,3.8-124.46,36.27-179.51,178.27-111.11,288.37,30.48,49.07,75.21,78.41,132.46,88.07,0,0,.44-.26.44-.26,1.01.66,2.03,1.33,3.04,1.99,0,0-.14-.08-.13-.08,5.44,4.92,6.58,11.15,6.63,18.27.22,29.56-1.13,59.14.66,88.69-4.45,13.2-7.7,15.51-21.77,15.58-6.13.03-12.26.18-18.39.27-9.34-.05-18.69-.53-28-.05-11.02.58-19.62,9.46-20.19,19.86-.54,9.89,7,18.68,17.46,21.24,10.34,2.53,20.5-.09,30.74-.21,6.75.45,13.5,1.01,20.25,1.33,14.01.65,16.26,2.41,19.91,16.06-1.31,29.46-1.53,58.92.25,88.36.72,11.84,9.81,20.52,20.57,20.51,11.32,0,20.57-9.1,20.65-21.42.19-29.18-.08-58.35-.16-87.53,3.74-13.48,6.67-15.79,20.14-15.92,15.83-.16,31.73.54,47.47-.72,13.75-1.1,21-10.26,20.31-22.44-.69-12.1-9.06-19.2-23.28-19.34-14.55-.14-29.1.09-43.65,0-12.82-.08-16.88-3.19-21.01-15.58,0-31.12,0-62.25,0-93.37,1.94-9.23,7.18-14.11,16.89-16.05,45.22-9.03,82.2-32.21,112.02-67.13,2.29-2.69,5.01-5.03,2.5-9.3-7.31-12.45-13.61-25.42-19.27-39.9-1.6,2.33-2.53,3.58-3.35,4.91-52.57,85.02-167.18,98.07-237.58,27.3-13.96-14.03-23.18-30.95-32.61-47.89l.06.1c.08-1.82-.3-3.45-1.84-4.63.1-.39.03-.73-.21-1.05.1-1.79-.19-3.43-1.7-4.63.05-.55-.09-1.04-.42-1.48.18-1.69-.17-3.2-1.5-4.36-5.65-24.87-5.81-49.89-2.03-75.01,1.25-1.12,1.63-2.52,1.39-4.13.19-1.22.38-2.45.57-3.67,1.76-1.72,1.93-3.88,1.69-6.15.43-2.06-.28-4.47,1.87-5.99,2.67-1.12,2.37-3.45,2.31-5.68l-.05.09c9.46-16.15,18.48-32.57,31.68-46.18,66.6-68.69,179.44-59.19,233.68,19.63,2.36,3.44,3.57,8.16,8.38,10.18,2.42-5.95,4.43-11.42,6.87-16.69,2.58-5.58,5.19-11.22,8.52-16.35,3.22-4.95,2.62-8.33-1.27-12.73-46.7-52.69-103.77-79.17-175.14-70.04-1.55-.12-3.13-.28-3.96,1.5l.09-.13ZM590.82,676.81c18.89,4.12,37.84,3.63,56.97,1.53,94.47-10.36,167.19-89.63,168.62-184.64.64-42.42-11.27-81.18-35.93-115.88-7.26-10.21-7.28-17.36.48-25.15,39.15-39.3,78.37-78.53,117.68-117.67,8.28-8.25,16.11-8.21,24.72-.21,5.7,5.3,11,11.02,16.56,16.46,10.22,10.02,18.78,7.87,22.59-5.78,3.22-11.53,6.16-23.15,9.25-34.72,7.7-28.77,15.49-57.52,23.09-86.32,3.08-11.68-3.54-18.45-15.1-15.67-5.98,1.44-11.91,3.09-17.85,4.68-34.71,9.29-69.45,18.47-104.11,27.96-13.21,3.62-15.27,12.12-5.72,21.97,4.74,4.89,9.64,9.63,14.43,14.47,11.25,11.36,11.27,18.17-.09,29.54-36.91,36.95-73.86,73.86-110.79,110.79-15.35,15.34-16.99,15.28-35.75,4.54-40.21-23.02-83.13-31.61-129.05-23.22-3.83.61-7.72.98-11.49,1.87-102.44,24.33-166.11,123.23-145.96,226.64,14.59,74.92,83.66,140.19,157.46,148.79ZM158.15,489.95c-.02,66.21,53.86,120.03,120.09,119.96,66.09-.08,120-54.12,119.95-120.24-.05-66.2-53.93-119.89-120.24-119.8-66.46.08-119.78,53.53-119.8,120.09Z"/>
  <path class="cls-4" d="M277.95,471.17c15.56,0,31.13.15,46.69-.05,11.21-.14,18.5-6.63,18.42-15.81-.08-9.36-7.02-15.26-18.62-15.3-30.8-.1-61.6-.1-92.41,0-11.74.04-18.56,5.66-18.79,15.02-.24,9.68,7.01,15.98,18.99,16.1,15.24.15,30.48.04,45.72.04ZM277.3,539.76c15.88,0,31.77.1,47.65-.03,11.06-.09,18.32-6.69,18.02-15.98-.29-8.94-7.29-15.05-17.95-15.09-31.12-.11-62.24-.1-93.35,0-11.48.04-18.37,6.04-18.39,15.52-.02,9.52,6.86,15.49,18.32,15.57,15.23.11,30.47.03,45.7.03Z"/>
  <path class="cls-3" d="M135.16,436.46c.3-2.09-.21-4.5,2.31-5.68.05,2.23.36,4.56-2.31,5.68Z"/>
  <path class="cls-5" d="M131.61,448.6c-.1-2.23-.59-4.57,1.69-6.15.24,2.27.08,4.43-1.69,6.15Z"/>
  <path class="cls-5" d="M250.14,298.67c-.98,1.4-2.43,1.55-3.96,1.5.83-1.79,2.4-1.62,3.96-1.5Z"/>
  <path class="cls-5" d="M129.66,456.41c-.13-1.58-.02-3.07,1.39-4.14.24,1.62-.14,3.02-1.39,4.14Z"/>
  <path class="cls-5" d="M133.18,535.79c-1.64-1.06-1.7-2.67-1.5-4.36,1.33,1.17,1.68,2.67,1.5,4.36Z"/>
  <path class="cls-3" d="M135.3,541.9c-1.7-1.12-1.9-2.8-1.7-4.63,1.5,1.2,1.79,2.84,1.7,4.63Z"/>
  <path class="cls-3" d="M137.36,547.57c-1.99-.99-2-2.77-1.84-4.62,1.54,1.17,1.92,2.81,1.84,4.62Z"/>
  <path class="cls-5" d="M246.27,300.05c-.63.69-1.26,1.38-1.89,2.06,0-.7,0-1.39,0-2.09.63,0,1.26.02,1.89.03Z"/>
  <path class="cls-2" d="M247.21,680.01c1.01.66,2.02,1.33,3.04,1.99-1.01-.66-2.03-1.33-3.04-1.99Z"/>
  <path class="cls-6" d="M482.11,546.98c-7.71-22.41-11.74-45.3-10.09-69.14.97-13.92,5.07-27.09,8.19-40.52,1.54-1.17,1.83-2.84,1.84-4.62,0,0-.04.1-.04.1,10.84-22.34,24-42.98,43.64-58.78,45.15-36.3,95.83-45.78,149.74-25.69,54.67,20.38,88.06,61.06,96.7,119.22,14.43,97.06-63.92,181.05-161.45,172.95-53.07-4.41-93.11-31.31-120.06-77.38-1.96-3.35-3.8-6.77-5.69-10.15,0,0-.42.12-.43.12-.1-2.31-.55-4.47-2.37-6.11ZM622.85,369.84c-66.46.05-119.88,53.5-119.91,119.98-.03,66.26,53.76,120.1,119.95,120.08,66.17-.03,120.02-53.92,120.02-120.12,0-66.29-53.75-119.99-120.06-119.94Z"/>
  <path class="cls-6" d="M277.95,471.17c-15.24,0-30.48.12-45.72-.04-11.98-.12-19.23-6.42-18.99-16.1.23-9.36,7.05-14.99,18.79-15.02,30.8-.09,61.6-.1,92.41,0,11.6.04,18.54,5.94,18.62,15.3.08,9.18-7.21,15.66-18.42,15.81-15.56.2-31.13.05-46.69.05Z"/>
  <path class="cls-6" d="M277.3,539.76c-15.23,0-30.47.08-45.7-.03-11.46-.08-18.34-6.05-18.32-15.57.02-9.48,6.91-15.49,18.39-15.52,31.12-.1,62.24-.1,93.35,0,10.66.04,17.66,6.15,17.95,15.09.3,9.29-6.96,15.89-18.02,15.98-15.88.13-31.77.03-47.65.03Z"/>
  <path class="cls-1" d="M482.11,546.98c1.82,1.64,2.27,3.81,2.37,6.11-3.29-1.07-2.37-3.77-2.37-6.11Z"/>
  <path class="cls-1" d="M482.05,432.7c0,1.78-.3,3.45-1.84,4.62-.19-1.86-.11-3.61,1.84-4.62Z"/>
  <path class="cls-4" d="M622.08,539.76c15.89,0,31.77.1,47.66-.03,11.07-.09,18.38-6.72,18.06-15.98-.3-8.9-7.37-15.06-18-15.1-31.12-.12-62.25-.1-93.37,0-11.39.03-18.42,6.13-18.44,15.52-.02,9.41,7.02,15.49,18.37,15.57,15.24.11,30.48.03,45.71.03ZM623.34,439.98c-15.89,0-31.78-.13-47.66.04-10.79.12-17.59,6.14-17.72,15.16-.13,8.9,6.84,15.81,17.26,15.89,31.77.24,63.55.24,95.32,0,10.37-.08,17.49-7.13,17.31-15.92-.18-9.03-6.99-15-17.83-15.12-15.56-.17-31.13-.04-46.69-.04Z"/>
  <path class="cls-6" d="M622.08,539.76c-15.24,0-30.48.08-45.71-.03-11.36-.08-18.39-6.17-18.37-15.57.02-9.38,7.05-15.48,18.44-15.52,31.12-.09,62.25-.11,93.37,0,10.63.04,17.69,6.2,18,15.1.32,9.26-6.99,15.88-18.06,15.98-15.89.13-31.77.03-47.66.03Z"/>
  <path class="cls-6" d="M623.34,439.98c15.56,0,31.13-.13,46.69.04,10.84.12,17.65,6.09,17.83,15.12.18,8.8-6.94,15.85-17.31,15.92-31.77.24-63.55.23-95.32,0-10.42-.08-17.39-6.99-17.26-15.89.13-9.02,6.92-15.04,17.72-15.16,15.89-.17,31.77-.04,47.66-.05Z"/>
</svg>