<?xml version="1.0" encoding="UTF-8"?>
<svg id="Capa_1" data-name="Capa 1" xmlns="http://www.w3.org/2000/svg" version="1.1" viewBox="0 0 1080 1080">
  <defs>
    <style>
      .cls-1 {
        fill: #fff;
        stroke-width: 0px;
      }
    </style>
  </defs>
  <path class="cls-1" d="M716.7,980.69c-.36,4.54-.19,9.13-.03,13.69.42,11.87,5.71,17.13,17.7,17.16,42.39.1,84.78.12,127.18.04,12.01-.02,17.19-5.28,17.28-17.32.13-20.22-.1-40.44.07-60.65.34-40.25,15.12-74.16,45.09-101.24,8.23-7.43,16.57-14.73,24.87-22.08,20.55-18.19,36.21-39.86,47.56-64.89,15.15-33.42,16.14-68.72,15.17-104.4-.95-34.58-25.37-64.47-59.73-69.84-29.69-4.64-59.87-1.65-89.82-1.4-8.87.07-13.64,8.62-12.55,18.75,2.4,22.34,20.8,39.19,43.51,39.77,5.87.15,11.76-.21,17.6.22,22.66,1.67,39.8,18.37,41.88,40.51,1.69,18.02-8.63,29.21-32.26,35.82-22.8,6.38-37.21,20.66-40.42,44.83-.56,4.19-.68,8.44-1.22,12.63-1.01,7.83-5.5,12.46-13.39,12.99-8.46.57-13.68-4-15.3-11.99-.82-4.05-.4-8.47.09-12.64,4.67-39.97,25.71-63.98,65.09-74.75,2.87-.78,7.46.19,7.94-4.14.45-3.98-1.79-7.55-4.87-10.22-3.64-3.16-8.03-3.95-12.75-3.97-8.46-.02-17.09,1.03-25.31-1.26-5.82-1.62-8.41.23-11.66,5.01-20.03,29.52-60.35,34.58-87.2,11.04-4.03-3.54-5.87-4.62-10.57-.44-23.14,20.58-55.09,20.49-78.16.07-3.84-3.4-5.75-4.23-9.91-.29-11.63,11.02-25.93,17.05-41.85,14.96-11.3-1.49-12.31,3.94-12.36,12.23-.2,33.46,8.22,64.5,27.01,92.26,10.4,15.37,21.81,30.06,33.02,44.86,14.65,19.36,23.97,40.89,27.33,64.95l.97,79.71ZM201.26,865.67c.05,42.06,0,84.13.03,126.19.01,15.08,4.6,19.55,19.97,19.57,40.11.05,80.21.07,120.32.08,17.58,0,21.79-4.24,21.79-22,.01-69.78.59-139.56-.23-209.33-.43-36.47,9.87-68.37,32.41-96.91,12.69-16.07,25.69-32.05,35.65-50.11,14.31-25.96,21.03-53.78,20.32-83.4-.17-6.9-.73-11.67-10.75-10.29-15.83,2.18-30.32-3.42-42.27-14.08-4.31-3.85-6.4-4.8-11.4-.36-22.3,19.85-54.23,20.04-76.73.61-4.76-4.11-6.87-4.87-12.1-.26-21.73,19.19-52.52,18.76-75.59,1.61-7.52-5.59-8.46-19.16-20.4-18.03-10.08.95-20.11,1.67-30.21,1.61-3.04-.02-5.8.68-8.35,2.28-4.15,2.61-6.99,6.55-6.63,11.25.36,4.66,5.34,3.7,8.57,4.55,39.66,10.36,63.5,39.83,64.85,80.23.4,12-4.85,19.08-14.35,19.31-9.24.23-14.28-5.68-15.04-17.61-1.9-29.8-15.48-46.1-44.8-53.75-2.52-.66-5.08-1.2-7.53-2.05-13.14-4.55-21.64-16.77-21.45-30.71.3-22.38,19.08-41.77,41.53-42.75,5.86-.26,11.74.03,17.6-.16,22.61-.72,40.31-16.36,43.78-38.56,1.99-12.79-4.01-20.24-16.88-20.3-24.78-.12-49.57-.38-74.34.17-33.79.75-62.34,25.39-68.94,58.46-2.97,14.89-1.71,29.92-1.5,44.86.71,52.45,20.19,96.9,58.36,132.97,9.71,9.18,19.94,17.81,29.81,26.82,29.84,27.24,44.27,61.29,44.49,101.52v78.57ZM788.13,291.81c-5.58,33.94-18.17,64.94-38.36,92.93-15.45,21.42-35.48,38.13-55.04,55.34-15.57,13.7-26.14,30.33-32.92,49.91-3.8,10.98,5.4,10.19,10.26,13.37,6.5,4.25,5.8-2.82,7.13-5.3,14.96-27.87,48.85-39.84,77.05-25.88,7.5,3.71,9.03,1.34,12.28-4.47,11.91-21.26,30.64-32.06,54.82-30.54,25.4,1.6,42.98,15.34,52.13,39.3,1.5,3.92,2.38,8.07,3.56,12.17,45.33-23.18,88.97,11.97,87.88,49.76-.17,5.74,3.27,6.65,7.43,8.31,30.91,12.28,51.55,34.36,62.16,65.89,1.72,5.1,1.37,10.78,4.46,15.46v70.45c-2.61.75-1.87,3.04-2.15,4.8-6.65,41.79-23.71,78.71-51.82,110.42-12.78,14.41-27.73,26.52-42.08,39.24-24.28,21.52-36.39,48.51-36.67,80.83-.17,20.5-.1,41,0,61.49.03,7.27-1.22,14.17-4.3,20.79-6.3,13.52-18.09,20.05-31.26,24.88h-152.64c-12.92-6.92-25.21-14.34-30.16-29.57-3.21-9.87-2.62-19.93-2.61-29.98l-.85-76.29c-2.51-22.41-12.3-41.65-28.72-59.76v11.37c0,45.21.02,90.42-.03,135.64,0,5.5,0,10.95-1.53,16.42-4.9,17.64-17.9,26.46-33.96,32.18h-152.64c-27.68-11.59-33.48-33.72-33.2-61.55.97-96.47.39-192.95.32-289.42,0-3.26.94-6.83-1.38-10.4-5.14,6.86-9.52,13.35-14.55,19.29-20.57,24.25-28.72,52.03-28.28,83.86.98,69.74.23,139.49.35,209.24.03,15.48-4.41,28.75-16.49,39.04-5.44,4.63-12.39,6.31-18.32,9.95h-152.64c-.65-.63-1.19-1.53-1.96-1.86-23.06-9.69-31.58-22.28-31.6-47.06-.04-42.32.15-84.65-.13-126.97v-76.87c.35-33.5-12.19-61.36-37.54-83.41-7.86-6.84-15.63-13.78-23.38-20.74-33.88-30.46-56.17-67.75-66.54-112.22-1.56-6.71-.82-14.08-5.2-20.07v-74.36c3.53-1.83,2.68-5.65,3.49-8.51,8.36-29.54,25.72-52.6,53.63-64.7,14.36-6.23,16.99-13.73,17.17-27.76.58-43.49,45.35-70.27,84.4-51.02,6.27,3.09,7.47,1.21,10-3.75,11.11-21.8,34.13-34.57,57.98-31.81,24.12,2.8,40.47,16.39,50.1,38.95,8.88-5.58,18.3-9.26,28.48-9.51,5.52-.14,6.5-2,5.76-6.84-1.88-12.29-2.59-24.65-.46-36.99.57-3.29-.63-5.48-2.6-7.88-9.49-11.57-13.34-25-13.18-39.88.22-21.51.03-43.03.07-64.54.01-6.83-.11-13.68,1.62-20.4,9.53-36.8,49.04-55.07,83.45-38.65,2.85,1.36,5.21,5.74,8.72-.85,18.43-34.64,49.59-43.6,86.09-25.24,5.82-13.91,14.94-24.91,28.31-32.32,4.44-2.46,10.06-2.41,13.58-6.64h23.48c21.29,5.85,37.76,17.49,45.87,39.09,1.95-.98,3.4-1.69,4.84-2.42,39.7-20.1,83.55,4.65,86.44,49.11.37,5.77,2.82,7.53,7.51,9.36,33.61,13.15,54.81,37.48,63.86,72.34l.47,85.27ZM758.85,214.47c-7.57-31.55-30.01-52.58-62.32-56.27-27.54-3.14-55.37-1.01-83.06-.9-9.63.04-14.94,7.54-14.2,17.37,1.65,21.94,19.64,39.5,41.62,40.49,5.86.26,11.76-.13,17.6.26,19.23,1.3,33.39,10.25,40.72,28.46,9.13,22.66-1,41.96-24.71,47.76-30.49,7.46-43.51,23.02-45.85,54.81-.81,11.02-7.02,17.72-15.86,17.1-8.93-.63-14.28-7.74-14.2-18.84.31-40.72,24.06-70.2,65.5-81.64,2.81-.78,7.57.2,7.94-4.12.34-3.92-1.97-7.41-5.16-10.07-3.23-2.7-7.12-3.09-11.02-3.28-7.49-.36-15.02-.17-22.46-.9-4.69-.46-6.46.94-8.23,5.41-16.34,41.19-62.03,52.52-95.75,23.76-3.51-3-4.88-2.92-8.32.03-24.92,21.37-55.36,21.51-79.71.25-3.93-3.43-5.67-3.02-9.07.3-9.65,9.45-21.66,13.95-34.97,15.46-6.28.71-15.48-3.43-18.01.82-2.88,4.83-.05,13.19.66,19.98.51,4.84,1.47,9.65,2.51,14.41.62,2.84,1.72,5.45,4.24,7.45,8.08,6.41,13.35,14.97,17.6,24.29,1.14-.42,2.11-.63,2.93-1.11,38.73-22.76,90.19,6.2,88.88,54.56-.6,22.15.06,44.34.27,66.51.15,16.56-4.04,31.55-15.48,43.98-2.09,2.27-3.31,4.22-2.51,7.71,7.28,31.92,1.54,62.69-8.9,92.94-1.51,4.36-2.74,8.6-2.74,13.26.04,119.35,0,238.7.08,358.05,0,13.4,5.09,18.33,18.28,18.36,41.09.11,82.17.17,123.26.19,15.17,0,19.55-4.48,19.55-19.9.02-59.35-.07-118.7.12-178.05.02-6.44-1.59-11.85-4.67-17.46-19.77-36.09-29.08-74.4-22.59-115.57.94-5.96.8-10.03-3.45-14.79-8.72-9.76-13.11-21.69-13.19-34.87-.15-26.08-.71-52.19.13-78.25.84-26.13,14.91-43.81,38.94-53.28,4.88-1.92,7.34-4.09,8.41-9.16,5.44-25.92,18.05-47.97,37.16-66.21,9.43-9,19.32-17.52,29.06-26.19,34.19-30.42,54.86-68.12,61.07-113.54l-.1-69.57ZM702.22,576.36c0,16.92-.13,33.84.03,50.75.17,18.02,12.56,30.69,29.57,30.59,16.48-.1,29.09-12.77,29.21-30.13.22-33.83.23-67.67,0-101.51-.11-17.14-13.03-30.18-29.23-30.36-16.54-.18-29.38,13.1-29.55,30.88-.16,16.59-.03,33.18-.03,49.78ZM377.7,429.42c0-16.94.17-33.88-.05-50.82-.22-17.27-12.95-30.19-29.3-30.15-16.18.03-29.2,13.11-29.31,30.26-.23,33.88-.23,67.76,0,101.64.12,17.14,13.2,30.16,29.41,30.13,16.38-.03,28.99-12.91,29.2-30.24.2-16.94.04-33.88.04-50.82ZM452.28,179.17c0,16.93-.13,33.87.04,50.8.16,16.25,12.07,28.82,27.7,29.61,14.95.75,29.51-11.58,29.82-27.54.7-35.48.76-70.99-.05-106.47-.37-16.01-15.24-28.16-30.15-27.15-15.7,1.07-27.2,13.54-27.33,29.95-.13,16.93-.03,33.87-.03,50.8ZM849.3,516.02s-.04,0-.05,0c0-7.17.25-14.34-.05-21.49-.65-15.7-13.81-28.28-29.26-28.27-14.98.01-29.01,12.2-29.17,27.33-.48,45.59-.38,91.2-.04,136.79.09,12.03,8.83,22.58,20.38,25.97,11.54,3.38,21.8.71,30.41-7.96,4.34-4.38,5.41-7.73-.05-12.67-9.6-8.68-15.6-19.92-18.92-32.44-5.38-20.29-4.48-40.67,14.19-52.64,12.54-8.04,13.26-17.05,12.57-28.74-.12-1.95-.02-3.91-.02-5.86ZM289.37,415.75c0-22.48.25-44.97-.08-67.45-.25-16.46-13.45-29.23-29.31-29.22-15.98.02-28.8,12.74-29.11,29.31-.25,13.36.18,26.73-.19,40.08-.14,5.01,1.79,7.18,6.06,9.53,17.6,9.68,26.01,27.78,22.94,47.78-2.54,16.55-8.92,31.39-21.29,42.87-5.1,4.73-3.93,7.8-.11,11.97,7.92,8.66,20.18,11.93,31.2,8.06,11.72-4.11,19.69-14.65,19.84-27.43.26-21.83.07-43.67.07-65.5ZM540.7,164.29c0,21.82-.23,43.64.08,65.46.22,15.42,11.11,27.31,26.07,29.4,12.19,1.71,25.25-7.52,29.84-20.42,1.8-5.04,1.21-8.2-3.1-11.73-9.22-7.55-15.51-17.44-19.9-28.47-9.96-25.01-6.34-49.71,12.35-61.64,11.17-7.13,13.3-14.87,12.07-26.05-.35-3.22-.04-6.51-.06-9.76-.09-18.44-12.06-31.88-28.43-31.95-16.24-.07-28.82,13.6-28.91,31.66-.1,21.17-.02,42.34-.02,63.5ZM465.98,444.53c0-12.06.18-24.12-.04-36.17-.32-17.51-12.72-30.36-29.04-30.42-15.66-.06-29.05,12.68-29.38,29.29-.49,24.76-.53,49.54.03,74.29.38,16.62,13.91,29.11,29.68,28.89,16.05-.23,28.29-12.72,28.67-29.71.27-12.05.05-24.11.07-36.17ZM420.65,194.27c.08,0,.16,0,.24,0,0-13.36.87-26.79-.23-40.05-1.28-15.53-14.77-26.85-28.93-26.04-15.95.91-27.26,13.11-27.33,29.8-.1,23.8-.05,47.6,0,71.4,0,3.54-.04,7.03,1.33,10.55,4.71,12.04,17.08,20.52,28.78,19.33,13.58-1.38,24.7-11.12,25.88-24.96,1.13-13.25.24-26.68.24-40.02ZM613.88,591.94c0,11.39,0,22.78,0,34.17,0,.65,0,1.3.01,1.95.6,17,12.55,29.33,28.65,29.57,16.13.25,29.56-11.7,29.98-28.36.63-25.04.6-50.12.02-75.17-.39-16.69-13.79-28.93-29.74-28.72-16.07.2-28.43,12.61-28.84,29.45-.3,12.36-.06,24.73-.08,37.1ZM171.89,392.77c4.89,0,9.78,0,14.67,0q15.89,0,14.49-16.12c-.14-1.61-.44-3.23-.81-4.8-3.08-13.08-13.84-22.44-26.79-23.35-12.77-.9-25.27,7.27-29.51,19.77-2.56,7.54-3.66,16.33-.35,22.88,2.2,4.37,10.83,1.17,16.57,1.57,3.89.28,7.82.05,11.74.05ZM908.86,539.98c7.48,0,14.99-.43,22.43.13,6.56.49,6.87-2.59,5.71-7.5-3.01-12.79-16-22.42-29.78-22-13.45.41-25.88,11.4-27.98,24.29-.64,3.94.3,5.22,4.25,5.14,8.45-.18,16.91-.06,25.37-.05ZM657.83,126.72v.05c7.78,0,15.57-.31,23.33.1,5.52.29,5.76-2.35,4.85-6.46-2.64-11.85-15.07-21.77-27.7-22.06-12.93-.3-25.26,9.64-28.38,22.26-1.15,4.64-.65,6.44,4.58,6.2,7.76-.35,15.55-.09,23.33-.09Z"/>
</svg>