<?xml version="1.0" encoding="UTF-8"?>
<svg id="Capa_1" data-name="Capa 1" xmlns="http://www.w3.org/2000/svg" version="1.1" viewBox="0 0 1080 1080">
  <defs>
    <style>
      .cls-1 {
        fill: #fff;
        stroke-width: 0px;
      }
    </style>
  </defs>
  <path class="cls-1" d="M90,675.35c0-90.23,0-180.47,0-270.7.48-5.2.95-10.39,1.44-15.59,3.04-32.6,3.68-65.64,9.65-97.69,11.45-61.44,40.99-113.01,93.03-149.73,44.41-31.32,95.01-44.23,148.38-48.12,20.69-1.51,41.43-2.37,62.14-3.52,90.23,0,180.47,0,270.7,0,5.21.48,10.41,1.26,15.63,1.39,35.45.89,70.79,2.53,105.47,10.95,63.16,15.34,114.93,47.23,149.66,103.5,25.81,41.83,36.9,88.19,40.36,136.66,1.52,21.28,2.38,42.6,3.53,63.91v267.19c-.48,5.8-.92,11.6-1.46,17.4-3.03,32.59-3.48,65.68-9.67,97.67-13.78,71.24-50.31,127.91-115.34,163.62-39.2,21.52-81.8,31.07-126.03,34.19-21.28,1.5-42.61,2.37-63.91,3.53h-267.19c-5.51-.48-11.02-.93-16.53-1.44-32.59-3.02-65.64-3.6-97.68-9.59-66.64-12.47-121.24-45.36-157.86-104.11-26.16-41.97-37.34-88.63-40.82-137.41-1.48-20.68-2.36-41.4-3.52-62.1ZM540.23,169.68c-.01.54-.02,1.08-.03,1.62-35.44,0-70.89-.64-106.31.17-42.1.96-84.44-.28-126.02,8.32-63.78,13.19-106.41,49.87-124.42,113.43-8.3,29.29-10.44,59.39-10.69,89.56-.76,90.49-1.8,180.99-.95,271.47.37,39.11,2.02,78.69,8.54,117.14,11.62,68.54,53.38,112.02,121.76,126.86,25.56,5.55,52.15,8.26,78.32,8.68,89.3,1.44,178.63,1.89,267.95,1.49,41.21-.18,82.66.21,123.39-8.13,67.78-13.88,111.45-53.78,126.4-121.73,5.68-25.82,8.35-52.72,8.76-79.19,1.41-91.65,2.07-183.33,1.24-274.98-.35-38.81-2.36-78.03-8.52-116.27-8.73-54.13-38.36-94.84-90.31-116.85-24.52-10.39-50.34-15.82-76.79-16.69-64.09-2.09-128.2-3.32-192.31-4.9Z"/>
  <path class="cls-1" d="M770.95,539.7c.34,127.67-103.4,231.48-231.1,231.28-127.62-.21-230.5-103.04-230.81-230.7-.31-127.68,103.39-231.45,231.11-231.26,127.67.2,230.46,102.94,230.8,230.69ZM539.89,390.17c-82.91.07-149.52,66.58-149.7,149.49-.18,83.22,66.72,150.23,149.92,150.17,82.89-.07,149.52-66.6,149.7-149.51.18-83.25-66.68-150.22-149.92-150.15Z"/>
  <path class="cls-1" d="M781.21,246c30.22.5,53.48,24.84,52.77,55.22-.69,29.69-24.87,52.85-54.77,52.47-29.79-.38-53.43-25.13-52.88-55.36.53-29.47,25.03-52.83,54.88-52.33Z"/>
</svg>