<?xml version="1.0" encoding="UTF-8"?>
<svg id="Capa_1" data-name="Capa 1" xmlns="http://www.w3.org/2000/svg" version="1.1" viewBox="0 0 1080 1080">
  <defs>
    <style>
      .cls-1 {
        fill: #e95e35;
        stroke-width: 0px;
      }
    </style>
  </defs>
  <path class="cls-1" d="M392.73,743.37c-5.59,5.2-10.37,9.78-15.29,14.22-23.25,20.97-51.27,31.74-81.42,37.96-28.88,5.95-58.13,7.14-87.44,6.04-29.03-1.09-57.63-5.26-85.14-15.32-45.42-16.6-74.21-48.7-88.71-94.32-6.65-20.92-11.01-42.31-12.44-64.19-1.16-17.7-2.12-35.45-2.17-53.18-.21-92.11-.1-184.22-.1-276.32,0-1.33.11-2.68-.02-4-.33-3.57,1.05-5.28,4.8-4.94,2.06.18,4.15.03,6.22.03,28.15,0,56.3,0,84.45,0,5.76,0,5.76.02,5.76,5.92.01,96.11-.11,192.21.13,288.32.06,23.08,2.21,46.04,8.83,68.35,9.32,31.41,29.09,51.54,62.03,57.39,24.15,4.29,48.27,4.25,72.19-1.52,33.13-8,51.33-30.26,58.94-62.41,5.52-23.31,7.36-46.98,7.37-70.89.01-22.06-.22-44.15.98-66.16,2.52-46.42,11.17-91.48,33.09-133.18,27.06-51.5,69.71-81.57,126.6-91.93,41.89-7.63,83.69-7.08,125.08,3.08,53.4,13.11,91.54,45.21,115.49,94.5,12.57,25.87,20.36,53.18,24.97,81.48,1.02,6.27,1.67,12.6,2.83,18.84.22,1.19,1.98,2.91,3.11,2.97,7.67.45,15.37.69,23.06.7,54.97.05,109.93.03,164.9.03q7.56,0,7.56-7.76c0-60.57,0-121.13,0-181.7q0-6.03,6.09-6.04c29.78,0,59.56,0,89.34,0q6.21,0,6.21,6.39c0,162.89,0,325.78,0,488.68,0,6.13,0,6.15-6.01,6.15-30.08,0-60.15-.07-90.23.09-4.25.02-5.5-1.17-5.5-5.49.13-67.23.09-134.46.09-201.69q0-6.43-6.6-6.44c-55.41,0-110.82-.01-166.23.01-6.37,0-12.74.38-19.1.19-3.79-.12-4.91,1.01-5.23,4.94-2.86,35.96-9.08,71.22-23.54,104.58-26.45,61.02-72.53,97.82-137.85,109.78-46.53,8.52-92.81,7.04-138.09-7.93-25.88-8.56-48.45-22.62-67.25-42.47-.91-.96-1.47-2.24-1.78-2.74ZM434.85,539.68c1.27,18.58,2.19,37.2,3.92,55.74,1.84,19.63,6.11,38.79,13.5,57.15,11.05,27.45,29.95,46.48,59.01,54.38,17.06,4.63,34.45,5.45,51.95,3.55,16.51-1.79,32.16-6.3,46.08-15.81,18.11-12.37,28.25-30.29,35.06-50.45,9.46-28.03,12.31-57.15,13.25-86.46.77-23.82.4-47.64-2.42-71.37-2.38-20.02-6.1-39.69-13.45-58.56-11.23-28.83-31.04-48.22-61.57-55.53-22.83-5.46-45.79-5.39-68.53.5-25.05,6.48-43.76,21.25-54.95,44.67-4.37,9.15-8.01,18.78-10.75,28.54-8.59,30.59-10.15,62.04-11.1,93.65Z"/>
</svg>