<?xml version="1.0" encoding="UTF-8"?>
<svg id="Capa_1" data-name="Capa 1" xmlns="http://www.w3.org/2000/svg" version="1.1" viewBox="0 0 1080 1080">
  <defs>
    <style>
      .cls-1 {
        fill: #9BD2EC;
        stroke-width: 0px;
      }
    </style>
  </defs>
  <path class="cls-1" d="M540,528.18c-276.84,0-501.27,43.56-501.27,97.3s229.47,129.54,506.31,129.54,496.22-75.81,496.22-129.54-224.42-97.3-501.27-97.3ZM274.74,652.6c.12.06.15.07.17.08-.06-.03-.12-.06-.17-.08ZM952.57,441.89s32.1,86.46-74.67,144.76c-45.03,24.59-191.38,67.02-247.5,130.82-65.44,74.4-85.35,302.14-85.35,302.14,0,0,23.71-303.8-244.84-390.54-98.97-31.97-145.64-63.96-165.68-140.92-3-11.51-6.64-62.17-20.55-63.37-39.61-3.4-40.11-44.95-35.43-55.6,15.36-34.99,62.52-16.91,72.16-.22,31.59,54.66-4.46,67.64,171.52,124.36,18.22,5.87,50.71,32.96,71.55,66.04,29.94,47.53,47.7,113.74,47.7,113.74,0,0-21.61-161.22-89.49-186.96-157.41-59.68-163.49-75.64-169.81-84.63-27.95-39.77-5.68-107.74-5.68-107.74,0,0-46.24-15.41-57.37-42.82-5.04-12.41-2.59-58.86,41.36-52.35,13.76,2.04,40.85,43.79,40.85,43.79,0,0,27.79-8.98,32.93-10.69,32.15-10.72,57.3,24.68,60.19,33.29,57.54,171.79,235.09,105.42,202.07,263.19-18.7,89.35,34.51,154.91,34.51,154.91,0,0,3.31-53.05-19.78-126.97-7.71-24.67,9.54-58.1,13.87-79.13,3.63-17.61-12.78-36.27-23.64-50.6-48.56-64.07-114.89-53.14-143.35-83.27-26.52-28.08-71.79-89.38-55.36-144.26,4.43-14.79,20.67-28.79,20.67-28.79,0,0,2.6-58.36,7.41-70.1,16.86-41.14,45.51-18.07,51.26-12.81,14.06,12.87,8.77,60.02,8.77,60.02,0,0,9.77,5.56,18.21,7.42,12.56,2.76,25.33,3.86,32.2,8.19,23.72,14.95,38.06,44.78,42.64,95.31,1.37,15.2,20.93,34.75,20.93,34.75,0,0,91.72,64.74,69.47,107.91-20.47,39.69-34.49,66.83-15.8,98.49,9.2,15.58,13.3,63.38,7.77,80.61-17.53,54.63-32.43,104.16-32.43,104.16,0,0,86.54-49.52,56.81-166.79-14.91-58.8-31.43-64.2-12.6-87.83,32.91-41.31,13.79-70.94,8.19-85.59-3.88-10.16-17.96-20.88-30.57-28.7-29.94-18.57-77.94-54.91-60.95-88.68,3.69-7.34,14.16-24.28,14.16-24.28,0,0-40.16-68.74-6.07-91.05,6.81-4.46,33.68-3.14,33.68-3.14,0,0,15.81-33.14,25.97-38.96,44.44-25.43,60.85,11.68,52.3,30.63-5.11,11.32-29.43,30.03-19.86,37.95,36.98,30.56,19.85,137.73,13.26,171.93,7.38-33.42,34.01-134.25,85.54-128.39,3.1.35.43-41.37,21.88-58.87,22.27-18.18,49.89-5.23,55.74,7.33,15.47,33.24-25.67,55.73-25.67,55.73l7.83,13.11s28.53,32.04,14.13,89.3c-6.38,25.36-42.68,60.37-63.44,78.74-8.62,7.63-18.95,18.13-22.45,27.57-5.83,15.72-8.19,30.64,6.22,63.12,11.84,26.69-8.69,40.02-20.7,65.22-6.58,13.8-6.64,13.67-9.59,22.88-8.5,26.49.51,25.62,2.06,34.89.8,4.78,44.38-56.11,42.52-92.01-2.63-50.81-9.65-62.67-3.36-80.99,14.96-43.52,70.32-71.83,78.85-110.24,7.38-33.26,57.66-23.24,56.24-35-4.42-36.84,17.71-51.94,28.64-53.88,20.17-3.57,36.29.49,42.93,23.73,9.1,31.86-17.1,49.04-16.61,48.47.92-1.06,26.76,87.48-16.68,106.84-115.74,51.57-162.08,38.61-152.25,97.24,19.72,117.63-31.92,134.08-31.92,134.08,0,0,66.68-16.97,54.62-86.68-22.72-131.28,119.96-67.07,171.97-166.54,25.51-48.79,52.81-41.01,68.98-37.72,17.91,3.64,22.8,24.76,23.57,35.36,2.57,35.36-32.39,26.69-54.66,79.09ZM80.68,354.27c.03-.06.05-.12.08-.18,0,0,0,0,0,0-.03.06-.05.12-.08.18ZM998.26,322.79h0s0,0,0,0Z"/>
  <path class="cls-1" d="M274.91,652.68s-.06-.03-.17-.08c.06.03.12.06.17.08Z"/>
</svg>