<?xml version="1.0" encoding="UTF-8"?>
<svg id="Capa_1" data-name="Capa 1" xmlns="http://www.w3.org/2000/svg" version="1.1" viewBox="0 0 1080 1080">
  <defs>
    <style>
      .cls-1 {
        fill: #9BD2EC;
        stroke-width: 0px;
      }
    </style>
  </defs>
  <g>
    <path class="cls-1" d="M532.9,564.07c-147.98,0-267.94,23.28-267.94,52.01s122.66,69.24,270.64,69.24,265.24-40.52,265.24-69.24-119.96-52.01-267.94-52.01ZM391.11,630.57c.06.03.08.04.09.05-.03-.01-.06-.03-.09-.05ZM753.43,517.95s17.16,46.22-39.91,77.38c-24.07,13.14-102.3,35.82-132.3,69.93-34.98,39.77-45.62,161.5-45.62,161.5,0,0,12.68-162.39-130.88-208.76-52.9-17.09-77.85-34.19-88.56-75.33-1.6-6.15-3.55-33.23-10.99-33.87-21.17-1.82-21.44-24.03-18.94-29.72,8.21-18.7,33.42-9.04,38.57-.12,16.89,29.22-2.38,36.16,91.68,66.47,9.74,3.14,27.11,17.62,38.24,35.3,16,25.41,25.5,60.8,25.5,60.8,0,0-11.55-86.18-47.83-99.93-84.14-31.9-87.39-40.43-90.77-45.24-14.94-21.26-3.04-57.59-3.04-57.59,0,0-24.72-8.24-30.67-22.89-2.7-6.63-1.38-31.46,22.11-27.98,7.35,1.09,21.84,23.41,21.84,23.41,0,0,14.86-4.8,17.6-5.72,17.18-5.73,30.63,13.19,32.17,17.79,30.76,91.83,125.66,56.35,108.01,140.68-10,47.76,18.45,82.8,18.45,82.8,0,0,1.77-28.36-10.57-67.87-4.12-13.19,5.1-31.06,7.41-42.3,1.94-9.41-6.83-19.39-12.64-27.05-25.96-34.25-61.41-28.4-76.62-44.51-14.18-15.01-38.37-47.78-29.59-77.11,2.37-7.91,11.05-15.39,11.05-15.39,0,0,1.39-31.2,3.96-37.47,9.01-21.99,24.33-9.66,27.4-6.85,7.52,6.88,4.69,32.08,4.69,32.08,0,0,5.22,2.97,9.73,3.97,6.71,1.48,13.54,2.06,17.21,4.38,12.68,7.99,20.35,23.93,22.79,50.95.73,8.12,11.19,18.58,11.19,18.58,0,0,49.03,34.61,37.13,57.68-10.94,21.22-18.43,35.72-8.45,52.64,4.92,8.33,7.11,33.88,4.15,43.09-9.37,29.2-17.34,55.68-17.34,55.68,0,0,46.26-26.47,30.36-89.15-7.97-31.43-16.8-34.31-6.74-46.95,17.59-22.08,7.37-37.92,4.38-45.75-2.07-5.43-9.6-11.16-16.34-15.34-16-9.93-41.66-29.35-32.58-47.4,1.97-3.93,7.57-12.98,7.57-12.98,0,0-21.47-36.74-3.24-48.67,3.64-2.38,18-1.68,18-1.68,0,0,8.45-17.72,13.88-20.82,23.75-13.59,32.53,6.25,27.96,16.37-2.73,6.05-15.73,16.05-10.61,20.28,19.76,16.33,10.61,73.62,7.09,91.9,3.95-17.87,18.18-71.76,45.73-68.63,1.66.19.23-22.11,11.69-31.47,11.9-9.72,26.67-2.79,29.79,3.92,8.27,17.77-13.72,29.79-13.72,29.79l4.18,7.01s15.25,17.13,7.55,47.73c-3.41,13.56-22.81,32.27-33.91,42.09-4.61,4.08-10.13,9.69-12,14.74-3.12,8.4-4.38,16.38,3.32,33.74,6.33,14.27-4.64,21.39-11.06,34.86-3.52,7.38-3.55,7.31-5.13,12.23-4.54,14.16.27,13.69,1.1,18.65.43,2.56,23.72-29.99,22.73-49.18-1.41-27.16-5.16-33.5-1.79-43.29,8-23.27,37.59-38.39,42.15-58.93,3.95-17.78,30.82-12.42,30.06-18.71-2.36-19.69,9.47-27.77,15.31-28.8,10.78-1.91,19.4.26,22.95,12.69,4.87,17.03-9.14,26.21-8.88,25.91.49-.57,14.3,46.76-8.92,57.11-61.87,27.57-86.63,20.64-81.38,51.98,10.54,62.88-17.06,71.67-17.06,71.67,0,0,35.64-9.07,29.2-46.33-12.15-70.17,64.12-35.85,91.92-89.02,13.64-26.08,28.23-21.92,36.87-20.16,9.57,1.95,12.19,13.24,12.6,18.9,1.37,18.9-17.31,14.27-29.22,42.28ZM287.38,471.11s.03-.06.04-.1c0,0,0,0,0,0-.01.03-.03.07-.04.1ZM777.85,454.28h0s0,0,0,0Z"/>
    <path class="cls-1" d="M391.2,630.62s-.03-.02-.09-.05c.03.02.06.03.09.05Z"/>
  </g>
  <g>
    <path class="cls-1" d="M181.44,531.57l-66.73-6.37c-2.81-.27-5.08-1.48-6.79-3.64-1.71-2.16-2.45-4.57-2.2-7.23l.79-8.44c.19-1.98,1.27-2.87,3.25-2.68l26.46,2.53c1.29.12,2.23-.25,2.81-1.11.58-.87.9-1.56.94-2.1.37-4.72.38-8.69.03-11.91-.35-3.22-1.03-6.37-2.04-9.46-.25-.64-.61-1.21-1.1-1.72-.49-.51-1.15-.8-1.99-.88l-15.63-1.49c-1.52-.14-2.86-.56-4.03-1.25-1.16-.69-2.14-1.55-2.92-2.58-.78-1.03-1.35-2.16-1.7-3.38-.35-1.22-.46-2.44-.35-3.66l.79-8.44c.19-1.98,1.27-2.87,3.25-2.68l73.69,7.03c.91.09,1.59.42,2.04,1,.44.58.62,1.33.54,2.24l-1.45,15.4c-.07.76-.4,1.42-.99,1.98-.59.56-1.3.8-2.14.72l-27.03-2.58c-1.14-.11-2.01.17-2.61.84-.6.67-.94,1.43-1.02,2.26-.03.31.01.69.12,1.16.72,3.83,1.05,7.64,1,11.43-.05,3.79-.21,7.14-.48,10.03-.14,1.52-.28,2.81-.42,3.87-.14,1.06-.24,1.9-.29,2.5.37-1.5,1.16-2.71,2.36-3.63,1.2-.92,2.56-1.31,4.08-1.16l21.79,2.08c.91.09,1.59.42,2.04,1,.44.58.62,1.33.54,2.24l-1.46,15.52c-.08.84-.41,1.5-.99,1.98-.58.48-1.29.68-2.13.6Z"/>
    <path class="cls-1" d="M169.41,422.82l-36.92-14.44c-1.42-.56-2.59-1.34-3.51-2.36-.92-1.01-1.59-2.12-2.02-3.32-.43-1.19-.65-2.43-.64-3.7,0-1.27.22-2.44.63-3.5l3.09-7.9c.31-.78.83-1.34,1.57-1.66.74-.32,1.5-.33,2.29-.03l43.11,16.86c4.05,1.59,7.66,1.87,10.81.84,3.15-1.02,5.55-3.63,7.19-7.83,1.64-4.2,1.64-7.73-.03-10.59-1.66-2.87-4.49-5.08-8.48-6.64l-36.71-14.36c-1.49-.58-2.69-1.4-3.59-2.45-.9-1.05-1.57-2.17-2-3.37-.43-1.19-.63-2.42-.59-3.68.04-1.26.26-2.38.65-3.38l3.09-7.89c.31-.78.83-1.34,1.57-1.66.74-.33,1.51-.33,2.29-.03l43.33,16.95c5.05,1.98,9.14,4.43,12.25,7.37,3.12,2.94,5.31,6.28,6.6,10.02,1.28,3.74,1.74,7.8,1.38,12.17-.36,4.37-1.49,8.98-3.38,13.81-1.9,4.84-4.19,9.01-6.87,12.51-2.68,3.5-5.8,6.2-9.33,8.1-3.53,1.9-7.45,2.89-11.75,2.97-4.3.08-8.97-.86-14.02-2.84Z"/>
    <path class="cls-1" d="M220.61,235.22c.47-.6,1.13-.95,1.99-1.06.86-.1,1.59.08,2.19.55l58.36,45.54c.66.52,1.02,1.18,1.06,1.99.05.81-.17,1.52-.64,2.12l-8.89,11.38c-.52.66-1.15,1.04-1.9,1.13-.75.09-1.46-.12-2.12-.64l-30.8-24.04c-.36-.28-.68-.24-.97.12-.09.12-.1.31-.01.57l9.26,21.47c.82,1.8.69,3.4-.39,4.78l-3.74,4.79c-.94,1.2-2.46,1.72-4.55,1.54l-23.01-3.86c-.23-.08-.41-.03-.55.15-.28.36-.24.68.12.96l30.8,24.04c.72.56,1.11,1.21,1.18,1.94.06.73-.19,1.45-.75,2.17l-8.82,11.29c-.52.66-1.15,1.07-1.89,1.21-.74.15-1.48-.06-2.2-.63l-53.21-41.52c-1.26-.99-2.14-2.13-2.63-3.43-.49-1.3-.74-2.59-.76-3.86-.02-1.28.15-2.45.51-3.53.36-1.08.75-1.89,1.17-2.43l3.95-5.06c1.22-1.56,2.73-2.13,4.53-1.7l38.79,6c.22-.02.37-.1.46-.22.14-.18.2-.38.17-.59l-15.16-36.25c-.85-1.63-.67-3.24.55-4.8l7.9-10.11Z"/>
    <path class="cls-1" d="M305.85,260l-39.55-54.12c-1.71-2.34-2.32-4.86-1.82-7.54.5-2.68,1.82-4.82,3.98-6.4l37.72-27.62c.62-.45,1.35-.61,2.2-.48.85.13,1.51.51,1.96,1.12l6.69,9.16c.5.68.63,1.38.41,2.11-.12.75-.51,1.37-1.19,1.87l-34.21,25.05c1.48-1.08,3.08-1.45,4.8-1.1,1.72.35,3.03,1.14,3.93,2.37l2.84,3.89c.5.68,1.22,1.15,2.16,1.4.94.26,1.88.04,2.8-.63l20.06-14.69c1.6-1.17,2.99-.96,4.16.64l6.08,8.33c1.17,1.61.96,2.99-.65,4.17l-28.01,20.51c1.42-1.04,2.98-1.42,4.69-1.16,1.71.27,3.01,1.01,3.91,2.25l3.18,4.35c.5.68,1.23,1.14,2.21,1.37.97.24,1.89.04,2.76-.6l26.99-19.77c.68-.5,1.42-.68,2.22-.56.8.12,1.45.53,1.94,1.2l6.63,9.07c.5.68.65,1.41.48,2.21-.18.79-.57,1.42-1.19,1.87l-44.19,32.36c-.68.5-1.39.69-2.14.57-.75-.11-1.37-.51-1.86-1.19Z"/>
    <path class="cls-1" d="M379.32,210.71l-24.27-62.49c-1.05-2.7-.97-5.29.24-7.77,1.21-2.48,3.02-4.19,5.45-5.13l21.36-8.29c4.77-1.85,9.38-3.01,13.84-3.47,4.45-.46,8.64-.07,12.55,1.15,3.92,1.23,7.44,3.34,10.58,6.34,3.13,3,5.75,7.01,7.86,12.01.46.97.96,2.15,1.5,3.54.54,1.39,1.14,2.94,1.8,4.65.64,1.64,1.22,3.14,1.74,4.49.53,1.35.94,2.54,1.26,3.57,6.91,19.69-.32,33.68-21.68,41.97l-28.52,11.07c-.78.31-1.52.31-2.21,0-.69-.3-1.19-.85-1.49-1.63ZM404.83,185.56c4.63-1.8,7.54-4.22,8.74-7.26,1.19-3.04.96-6.82-.72-11.34-.32-1.02-.71-2.2-1.19-3.53-.48-1.33-1.03-2.81-1.67-4.45-.64-1.64-1.23-3.11-1.77-4.41-.55-1.3-1.05-2.44-1.51-3.41-3.67-8.82-9.99-11.49-18.96-8l-16.02,6.22c1.64-.64,3.25-.59,4.85.15,1.59.73,2.66,1.78,3.18,3.13l13.11,33.75c.36.93.97,1.59,1.82,2,.85.41,1.78.42,2.78.03l7.37-2.86Z"/>
    <path class="cls-1" d="M465.23,182.31c-.52-.56-.8-1.11-.85-1.64-.05-.53-.05-.88.01-1.04l19.28-75.34c.62-2.28,2.03-3.54,4.24-3.75l17.68-1.73c2.2-.22,3.83.74,4.89,2.86l33.63,70.16c.09.15.16.48.22,1.02.06.61-.13,1.18-.58,1.73-.45.54-.97.84-1.58.9l-14.71,1.44c-1.9.19-3.28-.52-4.13-2.13l-7.52-15.5c-2.63,1.33-5.32,2.48-8.07,3.44-2.75.96-5.41,1.74-8,2.34-2.59.6-5.02,1.07-7.29,1.4-2.27.34-4.24.59-5.91.75-1.07.1-1.98.19-2.74.27-.76.08-1.33.09-1.72.05,1.46.01,2.69.64,3.7,1.88,1,1.25,1.25,2.78.74,4.59l-1.17,4.49c-.52,1.74-1.73,2.7-3.63,2.89l-14.71,1.44c-.53.05-1.13-.12-1.78-.52ZM491.32,150.29c2.11-.36,4.29-.84,6.53-1.45,1.95-.5,3.98-1.14,6.09-1.92,2.11-.78,4.1-1.8,5.97-3.06l-11.26-24.23-7.34,30.65Z"/>
    <path class="cls-1" d="M690.28,123c.81.23,1.41.71,1.8,1.42.39.71.48,1.43.27,2.17l-3.58,12.32c-.24.81-.7,1.39-1.4,1.74-.7.35-1.45.41-2.26.18l-25.53-7.42c1.61.47,2.89,1.48,3.84,3.02.94,1.55,1.2,3.05.77,4.52l-14.64,50.4c-.23.81-.71,1.34-1.42,1.62-.66.36-1.4.43-2.2.19l-15.3-4.44c-.81-.23-1.39-.68-1.76-1.34-.46-.61-.57-1.32-.34-2.13l15.34-52.82c.3-1.03.2-1.93-.29-2.71-.49-.78-1.18-1.29-2.06-1.55l-15.96-4.63c-.73-.21-1.32-.66-1.76-1.34-.44-.68-.54-1.43-.3-2.24l1.63-5.61c.4-1.39,1.05-2.6,1.94-3.61.89-1.01,1.92-1.81,3.08-2.39,1.16-.58,2.37-.92,3.64-1.03,1.26-.11,2.48,0,3.66.35l52.82,15.34Z"/>
    <path class="cls-1" d="M694.64,209.89l31.05-59.41c1.34-2.57,3.33-4.23,5.95-4.96,2.63-.74,5.12-.49,7.49.76l8.12,4.25c.81.43,1.3.98,1.46,1.67.22.72.14,1.46-.25,2.2l-34.33,65.71c-.39.75-.95,1.23-1.67,1.46-.65.26-1.39.18-2.2-.25l-14.41-7.55c-.75-.39-1.23-.95-1.46-1.67-.23-.72-.15-1.45.25-2.2Z"/>
    <path class="cls-1" d="M742.41,236.35l42.38-51.93c1.83-2.25,4.11-3.47,6.84-3.66,2.72-.19,5.12.55,7.19,2.25l36.21,29.57c.59.48.93,1.15,1.02,2.01.09.86-.11,1.59-.59,2.18l-7.17,8.79c-.53.65-1.18.96-1.94.93-.75.08-1.45-.15-2.1-.68l-32.84-26.81c1.42,1.16,2.18,2.62,2.27,4.37.09,1.76-.34,3.23-1.31,4.41l-3.04,3.73c-.53.65-.8,1.47-.81,2.44-.01.98.43,1.83,1.32,2.55l19.26,15.73c1.54,1.26,1.68,2.66.42,4.19l-6.52,7.99c-1.26,1.54-2.65,1.68-4.19.42l-26.89-21.96c1.36,1.11,2.13,2.53,2.3,4.25.17,1.72-.22,3.17-1.19,4.36l-3.4,4.17c-.53.65-.79,1.48-.77,2.48.02,1,.44,1.84,1.27,2.52l25.92,21.16c.65.53,1.02,1.2,1.1,2.01.08.81-.14,1.53-.67,2.19l-7.1,8.7c-.53.65-1.2.99-2.01,1.02-.81.03-1.51-.2-2.1-.68l-42.43-34.64c-.65-.53-1.02-1.17-1.09-1.93-.08-.75.15-1.45.68-2.11Z"/>
    <path class="cls-1" d="M846.74,350.84c-.64-.1-1.16-.43-1.57-.98l-9.46-12.96c-1.31-1.79-1.4-3.66-.27-5.62l11.7-22.84c.58-1.27.47-2.47-.34-3.58l-8.92-12.22c1.17,1.6,1.52,3.26,1.07,4.96-.46,1.7-1.21,2.94-2.26,3.7l-15.28,11.13c-.74.54-1.47.74-2.19.6-.72-.14-1.35-.58-1.89-1.32l-9.19-12.59c-.5-.68-.68-1.39-.57-2.14.12-.75.51-1.37,1.2-1.86l54.19-39.46c2.28-1.66,4.78-2.26,7.5-1.78,2.71.48,4.86,1.8,6.44,3.96l14.32,19.62c2.52,3.46,4.53,7.02,6.04,10.7,1.5,3.68,2.27,7.3,2.32,10.86.04,3.56-.76,7.03-2.41,10.4-1.65,3.38-4.39,6.46-8.22,9.25-3.83,2.79-7.77,4.45-11.82,4.99-4.05.54-8.24-.21-12.57-2.26-.73-.22-1.31-.18-1.75.14-.43.31-.73.62-.88.93l-12.58,26.88c-.23.45-.51.8-.82,1.02-.43.31-1.03.47-1.79.46ZM876.01,300.76c2.53-1.84,3.93-3.97,4.2-6.39.27-2.42-.5-4.86-2.3-7.33l-11.62-15.92c1.08,1.48,1.42,3.08,1.01,4.79-.41,1.71-1.2,3-2.37,3.85l-7.41,5.4c-.8.58-1.28,1.36-1.43,2.32-.15.96.07,1.84.65,2.64l5.88,8.05c1.8,2.47,3.85,3.98,6.14,4.53,2.29.55,4.7-.1,7.24-1.94Z"/>
    <path class="cls-1" d="M883.15,437.58c-.59-.27-1.01-.72-1.26-1.36l-5.71-14.99c-.79-2.07-.38-3.9,1.22-5.49l17.29-18.98c.9-1.08,1.1-2.26.61-3.54l-5.39-14.13c.71,1.86.62,3.55-.27,5.07-.89,1.52-1.94,2.52-3.15,2.98l-17.67,6.74c-.85.33-1.61.33-2.27,0-.66-.32-1.15-.91-1.47-1.77l-5.55-14.56c-.3-.79-.3-1.52.01-2.21.31-.69.86-1.18,1.64-1.48l62.63-23.9c2.64-1.01,5.21-.92,7.7.25,2.49,1.18,4.21,3.01,5.17,5.51l8.65,22.7c1.52,4,2.53,7.97,3.01,11.91.48,3.94.28,7.64-.62,11.09-.89,3.45-2.58,6.58-5.06,9.41-2.48,2.83-5.93,5.08-10.36,6.77-4.42,1.69-8.66,2.26-12.71,1.72-4.05-.54-7.89-2.37-11.53-5.47-.65-.41-1.22-.52-1.72-.33-.5.19-.87.41-1.1.66l-19.2,22.66c-.35.38-.7.63-1.05.77-.5.19-1.12.18-1.85-.03ZM924.54,396.89c2.92-1.12,4.84-2.81,5.73-5.07.89-2.26.8-4.82-.29-7.68l-7.02-18.41c.65,1.71.56,3.34-.28,4.89-.84,1.55-1.94,2.58-3.3,3.1l-8.56,3.27c-.93.35-1.59.97-1.99,1.86-.4.89-.42,1.79-.07,2.72l3.55,9.32c1.09,2.85,2.66,4.85,4.73,5.98,2.07,1.13,4.56,1.14,7.49.02Z"/>
    <path class="cls-1" d="M887.86,456.44c.56-.52,1.11-.8,1.64-.85.53-.05.88-.05,1.04.01l75.35,19.26c2.29.62,3.54,2.03,3.75,4.23l1.73,17.68c.22,2.2-.74,3.83-2.86,4.89l-70.16,33.66c-.14.09-.48.16-1.01.21-.61.06-1.18-.13-1.73-.58-.54-.45-.84-.97-.9-1.58l-1.44-14.71c-.19-1.9.52-3.28,2.13-4.12l15.5-7.52c-1.33-2.63-2.48-5.32-3.44-8.07-.96-2.75-1.74-5.41-2.34-8-.6-2.59-1.07-5.02-1.4-7.29-.34-2.27-.59-4.24-.75-5.91-.1-1.07-.19-1.98-.27-2.74-.07-.76-.09-1.33-.05-1.72-.01,1.46-.64,2.69-1.88,3.7-1.25,1-2.78,1.25-4.59.74l-4.49-1.17c-1.74-.52-2.7-1.73-2.89-3.63l-1.44-14.71c-.05-.53.12-1.13.52-1.78ZM919.89,482.52c.36,2.11.84,4.29,1.45,6.54.5,1.95,1.14,3.98,1.92,6.09.78,2.11,1.8,4.1,3.06,5.97l24.23-11.26-30.66-7.33Z"/>
  </g>
  <g>
    <path class="cls-1" d="M117.87,689.52c-3.82-10.2-4.35-19.13-1.6-26.79,2.75-7.66,8.8-13.44,18.15-17.34,1.9-.79,5.02-2,9.38-3.63,4.42-1.65,7.65-2.82,9.67-3.5,9.41-3.11,17.73-2.67,24.96,1.34,7.23,4,12.73,11.03,16.49,21.09,2.37,6.35,3.47,12.43,3.28,18.23-.19,5.8-1.7,10.9-4.52,15.29-2.83,4.39-6.89,7.66-12.19,9.81-.64.24-1.26.21-1.86-.09-.6-.3-1.02-.78-1.26-1.42l-5.68-15.2c-.37-1-.45-1.8-.23-2.41.22-.61.8-1.29,1.73-2.05,3.12-2.31,5-4.74,5.63-7.29.63-2.55.32-5.51-.94-8.86-3.02-8.06-9.07-10.55-18.17-7.48-1.95.65-4.93,1.72-8.92,3.22-4,1.5-7.01,2.66-9.06,3.51-8.88,3.65-11.82,9.5-8.8,17.56,1.23,3.28,2.95,5.71,5.16,7.28,2.21,1.57,5.21,2.18,8.98,1.83,1.18-.11,2.05,0,2.63.36.58.35,1.05,1.03,1.43,2.03l5.68,15.2c.24.64.23,1.27-.02,1.9-.26.62-.7,1.06-1.35,1.3-5.4,1.86-10.62,2.06-15.63.6-5.02-1.46-9.5-4.31-13.45-8.57-3.95-4.26-7.11-9.56-9.49-15.91Z"/>
    <path class="cls-1" d="M172.53,792.18c-6.27-8.81-9.08-17.28-8.42-25.42.66-8.14,5.03-15.32,13.13-21.55,1.69-1.3,4.34-3.23,7.94-5.79,3.6-2.56,6.32-4.45,8.16-5.67,8.37-5.58,16.61-7.36,24.74-5.34,8.12,2.02,15.28,7.38,21.46,16.06,6.14,8.62,8.84,17.11,8.09,25.45-.75,8.34-5.13,15.55-13.14,21.63-3.51,2.69-6.17,4.67-7.96,5.95-1.86,1.32-4.57,3.16-8.14,5.51-8.53,5.61-16.74,7.41-24.62,5.4-7.88-2.01-14.96-7.42-21.23-16.23ZM186.49,782.24c2.3,3.22,5.11,5.1,8.43,5.64,3.32.53,7.05-.58,11.17-3.32,3.69-2.44,6.31-4.21,7.86-5.31,1.55-1.1,4.02-2.95,7.4-5.55,3.94-3,6.21-6.15,6.79-9.47.58-3.31-.27-6.59-2.57-9.81-2.34-3.29-5.17-5.2-8.5-5.73-3.32-.53-7.05.58-11.17,3.32-1.78,1.18-4.32,2.93-7.6,5.28-3.35,2.39-5.91,4.25-7.66,5.59-3.94,3-6.21,6.15-6.79,9.47-.59,3.31.29,6.62,2.63,9.91Z"/>
    <path class="cls-1" d="M252.43,878.17c-8.33-6.9-13.22-14.37-14.67-22.4-1.45-8.03.93-16.1,7.15-24.2,1.3-1.69,3.36-4.24,6.18-7.64,2.82-3.4,4.96-5.93,6.43-7.58,6.65-7.55,14.16-11.38,22.53-11.52,8.37-.13,16.66,3.2,24.87,10.01,8.15,6.76,12.93,14.26,14.36,22.51,1.42,8.25-.96,16.34-7.14,24.28-2.7,3.5-4.76,6.1-6.17,7.8-1.46,1.76-3.61,4.23-6.45,7.42-6.81,7.61-14.28,11.46-22.41,11.55-8.14.08-16.37-3.33-24.69-10.23ZM263.37,864.97c3.05,2.53,6.25,3.62,9.6,3.28,3.35-.34,6.66-2.37,9.94-6.08,2.94-3.3,5.01-5.69,6.23-7.15,1.22-1.47,3.13-3.89,5.73-7.27,3.04-3.91,4.42-7.54,4.14-10.89-.29-3.35-1.96-6.3-5.01-8.82-3.11-2.58-6.34-3.7-9.69-3.35-3.35.34-6.66,2.37-9.94,6.08-1.42,1.59-3.42,3.94-5.99,7.05-2.63,3.17-4.61,5.62-5.96,7.37-3.04,3.91-4.42,7.54-4.13,10.89.29,3.35,1.98,6.32,5.09,8.89Z"/>
    <path class="cls-1" d="M405.6,905.41c-2.03,4.35-4.5,7.67-7.42,9.97-2.92,2.29-6.1,3.76-9.54,4.38-3.44.63-7.07.53-10.9-.29-3.82-.82-7.7-2.14-11.64-3.97l-8.7-4.05c-.83-.39-1.68-.45-2.56-.18s-1.54.88-1.99,1.84l-8.93,19.16c-.32.69-.84,1.16-1.54,1.42-.67.36-1.42.35-2.25-.04l-14.81-6.9c-.69-.32-1.17-.86-1.45-1.62-.28-.76-.25-1.48.07-2.17l28.23-60.58c.67-1.45,1.55-2.62,2.64-3.5s2.25-1.49,3.5-1.83c1.25-.34,2.48-.46,3.7-.36,1.21.11,2.34.4,3.37.88l22.78,10.61c3.94,1.83,7.44,3.99,10.53,6.48,3.08,2.49,5.48,5.28,7.18,8.39,1.7,3.11,2.59,6.52,2.66,10.25.07,3.73-.91,7.77-2.94,12.12ZM385.55,895.94c2.8-6.01,1.19-10.41-4.81-13.21l-17.5-8.15c.55.26,1.12.67,1.69,1.23.58.56,1.05,1.22,1.41,1.98.36.76.58,1.59.66,2.51.08.92-.09,1.83-.51,2.72l-4.15,8.91c-.45.97-.49,1.9-.1,2.79.38.89.99,1.53,1.82,1.92l8.39,3.91c2.83,1.32,5.39,1.59,7.69.81,2.29-.78,4.1-2.58,5.42-5.41Z"/>
    <path class="cls-1" d="M427.33,964.13l12.53-65.65c.54-2.84,1.96-4.99,4.26-6.46,2.29-1.46,4.75-1.94,7.37-1.44l45.79,8.74c.75.14,1.36.57,1.85,1.28.48.71.65,1.44.51,2.19l-2.12,11.11c-.16.82-.58,1.4-1.26,1.74-.62.42-1.35.56-2.17.4l-41.52-7.92c1.79.34,3.15,1.26,4.07,2.75.91,1.5,1.23,2.99.95,4.48l-.9,4.71c-.16.82,0,1.67.45,2.53.45.86,1.24,1.4,2.37,1.62l24.35,4.65c1.95.37,2.73,1.53,2.36,3.47l-1.93,10.1c-.37,1.95-1.53,2.73-3.48,2.36l-34-6.49c1.72.33,3.06,1.21,4.03,2.63.97,1.43,1.31,2.89,1.03,4.38l-1.01,5.27c-.16.83,0,1.67.5,2.54.49.87,1.26,1.4,2.31,1.6l32.77,6.25c.82.16,1.46.57,1.92,1.24.45.67.6,1.41.45,2.24l-2.1,11c-.16.82-.59,1.44-1.28,1.85-.7.41-1.42.54-2.17.4l-53.64-10.24c-.82-.16-1.45-.55-1.87-1.17-.42-.62-.56-1.35-.4-2.17Z"/>
    <path class="cls-1" d="M600.74,976.91c-.43.48-.99.74-1.67.78l-15.97.9c-2.21.12-3.82-.82-4.85-2.82l-12.81-22.16c-.75-1.18-1.81-1.73-3.18-1.65l-15.06.85c1.98-.11,3.56.49,4.74,1.79,1.18,1.31,1.81,2.61,1.88,3.9l1.06,18.82c.05.91-.18,1.63-.68,2.15-.51.53-1.21.81-2.13.86l-15.51.88c-.84.05-1.54-.18-2.1-.68-.56-.5-.87-1.17-.91-2.01l-3.76-66.73c-.16-2.81.7-5.23,2.57-7.24,1.87-2.01,4.13-3.09,6.8-3.24l24.18-1.36c4.26-.24,8.33,0,12.23.74,3.89.74,7.34,2.05,10.35,3.94,3,1.89,5.47,4.44,7.41,7.65,1.94,3.21,3.04,7.17,3.3,11.89.26,4.72-.47,8.92-2.21,12.6-1.74,3.68-4.64,6.78-8.69,9.3-.58.49-.86,1-.83,1.53.03.53.13.95.3,1.24l15.72,25.09c.25.44.39.86.41,1.24.03.53-.17,1.12-.59,1.75ZM574.6,925.29c-.18-3.12-1.21-5.44-3.08-6.98-1.88-1.53-4.34-2.21-7.38-2.04l-19.62,1.11c1.83-.1,3.35.48,4.56,1.75,1.22,1.27,1.86,2.62,1.94,4.07l.51,9.13c.06.99.45,1.8,1.17,2.45.72.65,1.58.94,2.57.88l9.92-.56c3.04-.17,5.41-1.07,7.11-2.69,1.7-1.62,2.47-3.99,2.29-7.11Z"/>
    <path class="cls-1" d="M640.68,970.25c-.62-.44-1.02-.91-1.18-1.42-.16-.51-.23-.84-.21-1.01l2.73-77.51c.12-2.36,1.22-3.88,3.33-4.56l16.85-5.46c2.1-.68,3.89-.1,5.37,1.74l47.7,61.16c.12.12.26.44.42.94.19.58.12,1.18-.19,1.8-.32.63-.77,1.03-1.35,1.22l-14.02,4.54c-1.81.59-3.3.19-4.47-1.19l-10.62-13.49c-2.28,1.86-4.65,3.55-7.12,5.07-2.47,1.52-4.9,2.85-7.29,3.99-2.39,1.14-4.66,2.11-6.8,2.93-2.14.81-4.01,1.48-5.6,1.99-1.01.33-1.89.61-2.61.85-.72.23-1.28.38-1.67.42,1.42-.3,2.76.05,4,1.04,1.24,1,1.81,2.44,1.7,4.31l-.18,4.62c-.14,1.81-1.11,3-2.92,3.59l-14.02,4.54c-.51.17-1.12.12-1.84-.12ZM659.27,933.48c1.98-.8,4-1.74,6.06-2.8,1.79-.9,3.63-1.96,5.52-3.17,1.89-1.22,3.61-2.63,5.16-4.26l-16.12-21.2-.62,31.43Z"/>
    <path class="cls-1" d="M763.51,826.75c1.67-1.06,3.04-.75,4.1.92l6.79,10.71c.49.77.63,1.49.43,2.17-.17.74-.63,1.35-1.4,1.84l-22.29,14.14c1.41-.9,3-1.18,4.74-.84,1.75.34,3.03,1.15,3.84,2.43l28.03,44.19c.49.77.64,1.51.46,2.21-.19.7-.66,1.3-1.44,1.79l-13.31,8.45c-.64.41-1.36.55-2.16.43-.8-.12-1.42-.54-1.87-1.25l-29.31-46.21c-.57-.9-1.34-1.43-2.29-1.59-.96-.16-1.79-.01-2.5.44l-13.99,8.87c-.77.49-1.53.65-2.26.49-.69-.1-1.29-.54-1.78-1.31l-3.12-4.92c-1.59-2.51-2-5.07-1.22-7.68.78-2.61,2.23-4.59,4.35-5.94l46.21-29.31Z"/>
    <path class="cls-1" d="M839.05,862.72l-46-48.49c-1.99-2.1-2.91-4.51-2.76-7.22.15-2.72,1.19-4.99,3.13-6.83l6.63-6.29c.66-.63,1.35-.91,2.04-.84.75.02,1.42.33,2,.94l50.88,53.63c.58.61.85,1.29.83,2.04.04.7-.28,1.37-.94,1.99l-11.77,11.17c-.61.58-1.29.86-2.04.84-.75-.02-1.42-.33-2-.94Z"/>
    <path class="cls-1" d="M862.86,713.76c.39-.56.91-.9,1.54-1.01.7-.07,1.3.07,1.8.42.38.26.63.49.78.68l46.47,60.58c.74.8,1.12,1.66,1.12,2.59.13,1.02-.2,2.09-.99,3.21l-10.46,14.99c-.78,1.12-1.65,1.77-2.61,1.94-.94.28-1.92.29-2.95.03l-72.82-22.83-.97-.4c-.5-.35-.84-.86-1.01-1.54-.03-.76.13-1.39.48-1.89l8.5-12.18c.61-.87,1.4-1.48,2.39-1.82.95-.17,1.81-.13,2.56.12l49.23,16.11c.19.13.39.04.61-.27.17-.25.17-.44-.02-.57l-32.03-40.75c-.62-.71-.95-1.5-1-2.37-.02-1.03.27-1.99.89-2.87l8.5-12.18Z"/>
    <path class="cls-1" d="M946.73,724.51c-.73.22-1.34.23-1.84.05s-.81-.34-.93-.47l-59.09-50.24c-1.78-1.55-2.28-3.37-1.51-5.44l6.17-16.6c.77-2.07,2.33-3.11,4.7-3.13l77.56.54c.17-.02.51.07,1,.25.57.21,1,.64,1.29,1.27.29.64.33,1.24.12,1.81l-5.13,13.82c-.66,1.78-1.9,2.71-3.71,2.76l-17.17-.04c.05,2.94-.1,5.85-.44,8.73-.34,2.88-.81,5.61-1.4,8.19-.6,2.58-1.24,4.97-1.93,7.15-.69,2.18-1.33,4.06-1.91,5.63-.37,1-.69,1.86-.96,2.57-.26.71-.5,1.24-.7,1.57.65-1.3,1.75-2.13,3.3-2.49,1.55-.35,3.03.09,4.44,1.34l3.51,3.01c1.33,1.23,1.67,2.73,1,4.52l-5.13,13.82c-.19.5-.6.96-1.24,1.37ZM929.42,687.12c.6-2.05,1.12-4.21,1.56-6.49.41-1.96.72-4.06.94-6.3s.18-4.46-.13-6.69l-26.63-.51,24.26,19.99Z"/>
  </g>
</svg>