<?xml version="1.0" encoding="UTF-8"?>
<svg id="Capa_1" data-name="Capa 1" xmlns="http://www.w3.org/2000/svg" version="1.1" viewBox="0 0 1080 1080">
  <defs>
    <style>
      .cls-1 {
        fill: #e95e35;
        stroke-width: 0px;
      }
    </style>
  </defs>
  <path class="cls-1" d="M692.54,86.68c.44-.89.88-1.78,1.32-2.67-3.29-2.45-6.26-5.71-9.94-7.2-13.05-5.3-25.99-11.73-39.62-14.59-40.26-8.44-81.29-9.7-122.31-9.96-8.66-.05-17.33.89-26,1.25-28.03,1.18-56.76,1.71-81.64,15.79-34.72,19.65-68.84,40.89-95.57,71.4-12.89,14.71-25.02,30.21-36.24,46.24-19.68,28.1-33.87,58.87-40.86,92.71-6.79,32.86-6.02,65.9-2.84,99.1,3.08,32.19,9.44,63.46,22.45,93.19,20.08,45.91,52.85,81.27,92.39,110.77,20.98,15.66,43.34,29.24,68.95,36.01,21.5,5.68,43.11,11.08,64.89,15.52,14.32,2.92,28.99,4.51,43.58,5.67,40.38,3.22,79.45-4.69,118.4-14.29,52.93-13.04,95.61-40.4,125.51-86.75,17.68-27.42,29.05-57.74,41.11-87.78,14.48-36.08,20.61-73.31,15.2-111.96-3.46-24.73-6.15-49.66-18.01-72.48-23.36-44.94-56.02-79.71-101.25-104.02-60.44-32.49-123.86-42.94-190.74-32.01-50.78,8.29-92.5,35.03-128.71,70.64-6.25,6.14-10.99,14.25-14.96,22.19-7.64,15.3-14.28,31.1-21.22,46.74-2.09,4.71-4.01,9.52-5.61,14.42-8.7,26.6-8.89,54.08-8.11,81.65,1.25,44.69,15.92,83.66,51.75,111.65,14.32,11.19,32.04,17.97,48.02,27.09,42.07,24,87.24,30.54,134.6,23.81,20.66-2.94,41.48-6.24,59.34-18.44,12.12-8.28,24-16.93,35.98-25.42,24.97-17.68,41.31-41.33,48.88-71.03,4.64-18.21,3.61-36.64,2.43-55.15-1.89-29.56-10.2-56.89-28.72-80.17-38.67-48.62-89.69-69.25-150.92-62.64-36.99,3.99-67.42,21.25-86.3,54.5-16.47,29.02-22.15,60.71-16.9,93.78,5.05,31.87,24.01,54.13,51.18,69.94,9.65,5.61,20.04,6.96,32.31,3.27-2.31-1.47-3.27-2.47-4.42-2.75-15.81-3.9-26.76-14.09-34.89-27.57-13.32-22.09-18.29-46.31-17.47-71.91.61-19.03,7.54-35.59,22.56-47.02,31.63-24.07,67.65-35.83,106.97-27.01,40.4,9.06,69.37,32.62,78.81,75.5,1.92,8.74,5.57,17.19,6.71,26,1.44,11.13,3.32,22.94,1.12,33.66-5.03,24.53-17.35,45.88-36.41,62.36-20.82,17.99-46.68,26.02-72.3,34.19-.75.24-1.62.11-2.43.17-26.39,1.96-52.53.15-78.57-4.51-38.93-6.97-66.09-30.97-89.25-60.97-18.52-44.9-30.63-89.61-8.16-137.61,11.39-24.33,23.87-47.67,39.76-69.11,35.65-48.12,83.64-66.1,142.34-57.43,32.22,4.76,62.2,16.84,92.83,27.02,24.71,8.21,45.88,21.42,62.58,41.09,20.44,24.08,43.78,46.45,50.21,79.64,2.84,14.65,9.76,28.99,10.03,43.56.68,36.64-5.32,72.84-17.46,107.46-16.42,46.79-50.56,77.83-93.61,99.86-46.29,23.68-95.87,34.3-147.56,36-45.24,1.49-86.37-10.24-123.12-37.3-21.89-16.12-44.57-31.16-66.62-47.06-6.79-4.9-13.45-10.37-18.89-16.7-37.15-43.17-55.01-93.81-54.93-150.46.04-28.54,1.99-57.1,10.74-84.74,13.15-41.51,39.15-74.88,66.44-107.59,21.89-26.24,48.42-45.85,80-58.77,14.07-5.76,28.55-10.92,41.74-18.33,23.87-13.4,49.4-13.5,75.22-11.74,30.34,2.06,60.62,4.96,90.9,7.77,15.5,1.44,31.53.74,45.1,10.92,2.61,1.96,6.79,1.81,10.25,2.64ZM503.43,355.75c.71,41.41,26.48,69.39,67.85,75.34,16.94,2.44,30.49-2.26,42-14.07,7.91-8.11,15.46-16.58,22.81-25.19.89-1.04.1-5.38-.93-5.83-2.77-1.19-6.41-2.15-9.12-1.32-6.44,1.97-12.6,4.89-18.76,7.69-20.26,9.21-37.72,4.28-48.81-14.85-4.15-7.17-7.16-15.22-9.44-23.22-4.83-16.88,1.39-31,12.96-43.05,2.93-3.06,7.3-4.69,10.57-7.49,1.39-1.19,2.61-4,2.15-5.55-.42-1.4-3.14-2.7-5-2.96-4.26-.6-8.68-1.12-12.92-.66-29.94,3.28-53.86,30.85-53.34,61.16Z"/>
  <path class="cls-1" d="M639.22,1027.73c-4.95-2.92-6.89-6.89-5.86-12.88,6.91-40.17,13.71-80.36,20.25-120.59,1.22-7.48,4.62-12.5,12.12-12.97,7.81-.49,11.18,4.96,13.18,11.91,9.4,32.61,19,65.16,28.56,97.72.43,1.48,1.19,2.86,2.52,6,1.36-3.92,2.29-6.26,3-8.66,9.16-31.28,18.38-62.54,27.36-93.86,2.12-7.4,5.22-13.81,13.94-13.09,8.37.69,11.13,6.89,12.38,14.74,6.38,39.95,12.99,79.86,19.91,119.71,1.18,6.81-2.65,9.23-7.08,11.98h-1.63c-2.51-4.19-6.53-8.13-7.27-12.62-4.48-27.34-8.17-54.81-12.21-82.22-1.41-9.57-3.08-19.11-4.63-28.66-2.56,2.46-3.35,4.73-4.03,7.04-10.26,34.65-20.36,69.36-30.92,103.92-1.39,4.55-5.15,8.38-7.81,12.55h-1.63c-2.76-3.74-6.8-7.1-8.08-11.29-10.61-34.77-20.7-69.71-30.98-104.58-.77-2.6-1.82-5.13-2.74-7.68-1.91,1.93-2.3,3.43-2.53,4.96-5.36,35.45-10.54,70.93-16.24,106.32-.7,4.32-4.14,8.2-6.3,12.28h-3.26Z"/>
  <path class="cls-1" d="M435.32,1027.73c-5.52-5.88-11.03-11.76-16.62-17.72-2.24,1.49-4,2.33-5.34,3.61-22.99,21.94-69.69,16.67-87.26-19.06-14.02-28.51-14.14-57.67,2.3-85.13,22.53-37.66,75.14-38.3,98.29-1.01,16.22,26.12,18.04,54.4,4.22,82.54-3,6.11-3.45,10.28,2.29,14.46,2.39,1.74,4.12,4.37,6.42,6.25,5.78,4.74,6.99,9.95,2.23,16.08h-6.52ZM414.35,989.19c11.7-23.41,9.83-57.4-2.41-75.95-16.21-24.57-51.57-24.68-67.96-.21-14.3,21.35-13.72,62.24,1.18,83.09,15.17,21.22,44.54,22.73,62.35,1.21-4.53-3.86-9.92-7.36-13.72-12.12-1.94-2.44-1.03-7.15-1.41-10.83,3.62.36,8.19-.53,10.65,1.35,4.18,3.21,7.03,8.16,11.31,13.46Z"/>
  <path class="cls-1" d="M957.29,1021.19c-7.43,7.48-12.33,6.64-16.17-2.92-2.33-5.8-4.67-11.62-6.55-17.58-1.6-5.07-4.12-7.39-9.88-7.26-17.66.39-35.34.33-53,.03-5.28-.09-7.84,1.87-9.37,6.76-1.94,6.22-4.54,12.23-6.78,18.36-1.88,5.15-5.03,9.06-10.89,7-6.26-2.2-5.17-7.48-3.38-12.34,11.26-30.63,22.57-61.23,33.88-91.84,3.49-9.44,7.01-18.86,10.49-28.3,2.13-5.78,4.32-11.02,12.05-11.22,8.07-.21,10.78,5.03,13.04,11.13,14.33,38.75,28.62,77.53,42.98,116.27.91,2.44,2.37,4.68,3.58,7.01v4.9ZM926.98,979.68c-9.55-26.67-18.72-52.28-27.9-77.89-.7.03-1.39.05-2.09.08-9.09,25.6-18.18,51.19-27.63,77.81h57.62Z"/>
  <path class="cls-1" d="M510.35,1027.73c-10.54-4.57-21.72-8.08-31.44-14-11.56-7.03-17.25-18.73-17.37-32.44-.26-29.96-.19-59.93-.25-89.9,0-5.23,1.57-9.34,7.73-9.21,6.24.14,7.3,4.52,7.3,9.62,0,26.43-.16,52.85.09,79.28.09,9.74.18,19.64,7.19,27.8,14.69,17.09,41.6,19.27,58.71,4.62,6.73-5.76,10.96-12.89,11.05-21.89.29-28.05.41-56.11.61-84.16.02-2.99-.68-6.43.56-8.85,1.35-2.65,4.55-6.01,6.95-6.02,2.49-.01,5.69,3.2,7.27,5.8,1.24,2.04.58,5.3.59,8.02.03,25.06.07,50.13,0,75.19-.08,31.74-14.45,48.84-45.63,54.55-1.25.23-2.38,1.05-3.57,1.59h-9.79Z"/>
  <path class="cls-1" d="M692.54,86.68c-3.46-.82-7.64-.68-10.25-2.64-13.57-10.18-29.6-9.48-45.1-10.92-30.28-2.81-60.56-5.71-90.9-7.77-25.82-1.76-51.35-1.66-75.22,11.74-13.19,7.4-27.67,12.57-41.74,18.33-31.58,12.93-58.12,32.54-80,58.77-27.29,32.71-53.29,66.09-66.44,107.59-8.75,27.64-10.71,56.2-10.74,84.74-.08,56.66,17.78,107.29,54.93,150.46,5.44,6.32,12.1,11.8,18.89,16.7,22.06,15.9,44.73,30.94,66.62,47.06,36.74,27.06,77.88,38.79,123.12,37.3,51.69-1.7,101.27-12.32,147.56-36,43.05-22.02,77.19-53.06,93.61-99.86,12.15-34.62,18.14-70.82,17.46-107.46-.27-14.57-7.19-28.91-10.03-43.56-6.43-33.19-29.77-55.56-50.21-79.64-16.7-19.67-37.87-32.88-62.58-41.09-30.63-10.17-60.62-22.26-92.83-27.02-58.7-8.67-106.69,9.32-142.34,57.43-15.89,21.44-28.37,44.78-39.76,69.11-22.47,47.99-10.35,92.71,8.16,137.61,23.16,30,50.32,54,89.25,60.97,26.04,4.66,52.18,6.47,78.57,4.51.81-.06,1.68.07,2.43-.17,25.63-8.17,51.49-16.2,72.3-34.19,19.07-16.48,31.38-37.83,36.41-62.36,2.2-10.72.32-22.53-1.12-33.66-1.14-8.81-4.78-17.26-6.71-26-9.44-42.88-38.4-66.43-78.81-75.5-39.32-8.82-75.34,2.94-106.97,27.01-15.02,11.43-21.95,27.99-22.56,47.02-.82,25.6,4.15,49.82,17.47,71.91,8.13,13.48,19.08,23.67,34.89,27.57,1.14.28,2.11,1.28,4.42,2.75-12.27,3.69-22.66,2.34-32.31-3.27-27.17-15.81-46.13-38.07-51.18-69.94-5.24-33.08.43-64.76,16.9-93.78,18.87-33.25,49.31-50.51,86.3-54.5,61.23-6.61,112.25,14.02,150.92,62.64,18.52,23.28,26.83,50.61,28.72,80.17,1.18,18.51,2.22,36.94-2.43,55.15-7.57,29.7-23.91,53.34-48.88,71.03-11.98,8.49-23.86,17.14-35.98,25.42-17.86,12.2-38.68,15.5-59.34,18.44-47.35,6.74-92.53.19-134.6-23.81-15.98-9.12-33.7-15.9-48.02-27.09-35.82-28-50.5-66.96-51.75-111.65-.77-27.57-.58-55.04,8.11-81.65,1.6-4.9,3.52-9.71,5.61-14.42,6.94-15.64,13.58-31.44,21.22-46.74,3.97-7.94,8.71-16.05,14.96-22.19,36.21-35.61,77.94-62.34,128.71-70.64,66.88-10.93,130.3-.48,190.74,32.01,45.23,24.31,77.89,59.08,101.25,104.02,11.86,22.82,14.55,47.75,18.01,72.48,5.41,38.66-.72,75.88-15.2,111.96-12.06,30.05-23.42,60.37-41.11,87.78-29.89,46.35-72.58,73.7-125.51,86.75-38.95,9.6-78.02,17.51-118.4,14.29-14.59-1.16-29.26-2.75-43.58-5.67-21.78-4.44-43.39-9.84-64.89-15.52-25.61-6.77-47.97-20.35-68.95-36.01-39.53-29.5-72.31-64.86-92.39-110.77-13.01-29.74-19.37-61.01-22.45-93.19-3.17-33.2-3.94-66.23,2.84-99.1,6.99-33.83,21.17-64.61,40.86-92.71,11.22-16.02,23.35-31.52,36.24-46.24,26.72-30.51,60.85-51.75,95.57-71.4,24.88-14.08,53.61-14.6,81.64-15.79,8.67-.37,17.33-1.31,26-1.25,41.02.25,82.05,1.51,122.31,9.96,13.63,2.86,26.57,9.29,39.62,14.59,3.68,1.49,6.64,4.75,9.94,7.2-.44.89-.88,1.78-1.32,2.67Z"/>
  <path class="cls-1" d="M503.43,355.75c-.52-30.31,23.41-57.88,53.34-61.16,4.24-.46,8.66.06,12.92.66,1.86.26,4.58,1.56,5,2.96.46,1.55-.75,4.35-2.15,5.55-3.27,2.8-7.63,4.44-10.57,7.49-11.57,12.05-17.79,26.17-12.96,43.05,2.29,8,5.29,16.05,9.44,23.22,11.09,19.13,28.55,24.06,48.81,14.85,6.16-2.8,12.33-5.72,18.76-7.69,2.72-.83,6.35.12,9.12,1.32,1.03.44,1.82,4.79.93,5.83-7.35,8.62-14.91,17.08-22.81,25.19-11.52,11.81-25.06,16.51-42,14.07-41.37-5.95-67.14-33.93-67.85-75.34Z"/>
  <path class="cls-1" d="M478.21,724.21c0,3.11-.02,6.23,0,9.34.21,30.22.45,60.44.59,90.67.01,2.67.13,5.86-1.2,7.88-1.57,2.39-4.97,5.52-7.01,5.16-2.73-.49-5.37-3.72-7.18-6.37-1.04-1.52-.43-4.23-.43-6.41-.02-39.48-.01-78.97-.02-118.45,0-.82-.28-1.79.06-2.43,1.88-3.55,3.19-8.31,6.18-10,1.69-.96,7.36,2.37,9.34,5.13,13.32,18.55,26.14,37.47,39.12,56.27,11.71,16.96,23.41,33.93,36.91,50.66.17-2.74.48-5.47.49-8.21.04-30.23.03-60.45.06-90.68,0-2.44-.59-5.4.55-7.2,1.68-2.67,4.96-6.54,7.01-6.23,2.85.43,5.43,4.05,7.62,6.73.82,1,.25,3.16.26,4.79.03,40.3.03,80.6.08,120.9,0,4.76.25,10.61-5.49,11.02-3.5.25-8.58-2.82-10.76-5.94-23.24-33.2-46.03-66.71-68.96-100.13-1.63-2.38-3.38-4.69-5.07-7.03-.72.17-1.43.33-2.15.5Z"/>
  <path class="cls-1" d="M627.5,695.02c8.13,0,16.43-1.06,24.37.19,27.99,4.42,47.94,27.92,50.51,58.97,1.31,15.84.43,31.54-6.22,46.38-10.12,22.57-27.75,34.25-52.18,35.38-11.92.55-23.89.21-35.84.07-8.51-.1-10.93-2.61-10.93-11.47-.03-39.73.08-79.46.03-119.19,0-7.4,3.12-11.19,10.71-11.05,6.51.12,13.03.02,19.55.02,0,.23,0,.46,0,.69ZM613.27,821.96c9.67,0,18.57.12,27.46-.02,18.77-.31,32.28-9.22,39.34-26.46,8.03-19.61,8.15-39.83.41-59.61-5.21-13.31-14.48-23.91-29.02-25.98-12.37-1.76-25.19-.36-38.18-.36v112.44Z"/>
  <path class="cls-1" d="M843.49,768.36c-2.99,10.47-5.11,23.83-10.55,35.66-10.2,22.18-28.54,33.92-53.23,33.6-24.39-.32-41.81-12.77-52.16-34.37-11.69-24.39-11.59-49.71-1.13-74.41,10.64-25.12,32.19-37.64,59.13-36.05,23.9,1.41,44.61,18.37,52.15,43.82,2.75,9.29,3.56,19.16,5.78,31.75ZM734.2,763.76c3.26,12.95,4.93,25.21,9.47,36.29,6.11,14.92,18.14,23.18,34.88,23.83,17.31.66,30.5-6.55,37.92-21.77,12.13-24.9,12.58-50.77-.58-75.28-15.2-28.32-55.4-28.31-70.47.1-5.9,11.13-7.6,24.5-11.21,36.83Z"/>
  <path class="cls-1" d="M441.79,759.63c-.79,22.56-3.94,38.62-13.86,52.77-23.53,33.6-70.56,34.19-94.96,1.15-19.49-26.4-19.26-71.23.59-97.43,13.68-18.05,32.13-25.66,54.28-22.89,23.13,2.89,38.73,16.68,46.98,37.94,4.16,10.71,5.57,22.5,6.97,28.46ZM424.22,763.18c.15-12.49-2.07-26.35-10.12-38.64-16.27-24.83-53.7-25.21-68.31.52-15,26.39-15.05,54.62.55,80.85,14.74,24.77,50.06,24.64,66.72,1.04,8.86-12.56,11.23-26.88,11.16-43.77Z"/>
  <path class="cls-1" d="M240.01,1020.46c-1.78,1.6-3.92,5.06-6.12,5.1-2.83.05-7.09-1.93-8.31-4.3-3.48-6.71-6.06-13.96-8.34-21.21-1.6-5.08-4.43-6.66-9.53-6.54-17.92.43-35.85.63-53.77.62-4.46,0-6.95,1.3-8.38,5.72-2.17,6.72-4.97,13.23-7.49,19.83-1.92,5.01-5.46,7.95-10.72,5.96-5.46-2.06-5.35-6.42-3.46-11.48,15.02-40.22,29.83-80.51,44.78-120.75,2.1-5.67,4.24-11.24,11.98-11.4,7.97-.16,10.79,5.12,13.04,11.22,14.68,39.78,29.32,79.58,43.95,119.38.74,2.03,1.26,4.14,2.37,7.85ZM182.26,902.38c-.76-.07-1.52-.15-2.27-.22-9.14,25.64-18.29,51.29-27.7,77.69h57.69c-9.46-26.46-18.59-51.97-27.71-77.47Z"/>
  <path class="cls-1" d="M257.85,758.32c11.31,0,21.34,0,31.37,0,2.44,0,5.38-.75,7.22.33,2.92,1.71,5.12,4.66,7.62,7.09-2.64,2.26-5.15,6.24-7.96,6.46-10.27.8-20.65.62-30.96.26-5.71-.2-7.61,1.76-7.51,7.45.29,15.52.06,31.06.1,46.59.02,5.58-.64,11.16-7.7,10.93-6.23-.2-7.33-5.23-7.32-10.67.07-40.6.14-81.19-.05-121.79-.04-7.86,3.41-10.69,10.84-10.58,15.22.21,30.45.13,45.67.07,5.12-.02,9.92,1.18,9.95,7.03.03,5.69-4.56,7.41-9.76,7.39-11.69-.03-23.38.05-35.07-.02-3.62-.02-6.51.35-6.49,5.05.07,14.38.03,28.76.03,44.4Z"/>
  <path class="cls-1" d="M271.44,1010.11c11.5,0,22.31-.06,33.12.05,2.67.03,5.79-.12,7.87,1.16,2.19,1.35,5.02,4.68,4.62,6.49-.55,2.49-3.82,6.14-6.02,6.21-16,.51-32.04.58-48.04.05-5.53-.18-7.1-5.12-7.1-10.22,0-13.34-.03-26.67-.03-40.01,0-25.58,0-51.17,0-76.75,0-2.18-.74-4.81.21-6.44,1.96-3.36,4.42-8.17,7.41-8.79,4.87-1,7.44,3.35,7.44,8.44.02,13.34.04,26.67.04,40.01.01,23.13,0,46.27.04,69.4,0,3.2.27,6.4.44,10.4Z"/>
  <path class="cls-1" d="M823.52,954.2c0,20.12,0,40.24,0,60.37,0,5.4-.17,11.15-7.34,11.28-7.41.13-8.32-5.58-8.32-11.43,0-40.52.02-81.03-.02-121.55,0-6.04,1.53-11.72,8.44-11.45,6.48.25,7.31,5.99,7.28,11.6-.1,20.39-.04,40.79-.04,61.18Z"/>
  <path class="cls-1" d="M611.61,953.57c0,20.43,0,40.86.01,61.29,0,5.45-.22,11.13-7.49,11.1-7.11-.03-7.61-5.54-7.6-11.08.03-40.86.05-81.71-.02-122.57,0-5.77,1.24-11.06,7.95-10.83,6.18.21,7.2,5.44,7.18,10.82-.08,20.43-.03,40.86-.03,61.29Z"/>
</svg>