<?xml version="1.0" encoding="UTF-8"?>
<svg id="Capa_1" data-name="Capa 1" xmlns="http://www.w3.org/2000/svg" version="1.1" viewBox="0 0 1080 1080">
  <defs>
    <style>
      .cls-1 {
        fill: #fff;
        stroke-width: 0px;
      }
    </style>
  </defs>
  <path class="cls-1" d="M1009.69,255.61c-2.52,6.5-4.29,13.43-7.7,19.42-10.79,19-27.56,28.8-49.34,30.06-2.13.12-4.28.06-6.42.06-270.91,0-541.83,0-812.74,0-32.48,0-55.82-17.9-61.98-47.38-7.18-34.38,18.57-67.89,53.77-69.91,3.96-.23,7.95-.13,11.92-.13,266.94,0,533.88,0,800.82,0,42.58,0,56.6,9.7,71.67,49.54v18.35Z"/>
  <path class="cls-1" d="M1009.69,549.17c-2.52,6.5-4.29,13.43-7.7,19.42-10.79,19-27.56,28.8-49.34,30.06-2.13.12-4.28.06-6.42.06-270.91,0-541.82,0-812.74,0-32.48,0-55.83-17.9-61.98-47.37-7.18-34.37,18.58-67.9,53.77-69.91,3.96-.23,7.95-.13,11.92-.13,266.94,0,533.87,0,800.81,0,42.52,0,56.61,9.74,71.67,49.54v18.35Z"/>
  <path class="cls-1" d="M1009.69,842.74c-2.52,6.5-4.29,13.43-7.7,19.42-10.79,19-27.56,28.8-49.34,30.06-2.13.12-4.28.06-6.42.06-270.91,0-541.82,0-812.74,0-32.48,0-55.83-17.9-61.98-47.37-7.18-34.37,18.58-67.9,53.77-69.91,3.96-.23,7.95-.13,11.92-.13,266.94,0,533.87,0,800.81,0,42.52,0,56.61,9.74,71.67,49.54v18.35Z"/>
</svg>